<svg width="26" height="31" viewBox="0 0 26 31" fill="none" xmlns="http://www.w3.org/2000/svg">
<style>
	
</style>
<path d="M13.0746 25.0604C12.9515 25.0604 12.8292 25.0127 12.737 24.9195L2.52275 14.5843C2.33853 14.3979 2.34031 14.0975 2.52673 13.9134C2.7131 13.729 3.01352 13.7309 3.19767 13.9173L11 21.812L5.48921 11.8366C5.3625 11.6072 5.44569 11.3186 5.67507 11.1919C5.90445 11.065 6.19305 11.1484 6.31976 11.3778L13.4897 24.3566C13.6043 24.564 13.5483 24.8241 13.3586 24.966C13.2739 25.0293 13.174 25.0604 13.0746 25.0604Z" fill="#7A797E"/>
<path d="M13.0744 25.0604C12.975 25.0604 12.8752 25.0293 12.7904 24.9659C12.6007 24.8241 12.5447 24.5639 12.6593 24.3565L19.8294 11.3777C19.9561 11.1483 20.2448 11.0651 20.474 11.1918C20.7034 11.3185 20.7866 11.6071 20.6599 11.8365L15.1491 21.8119L22.9515 13.9172C23.1357 13.7308 23.436 13.7289 23.6224 13.9133C23.8088 14.0974 23.8106 14.3979 23.6264 14.5842L13.412 24.9195C13.3199 25.0127 13.1975 25.0604 13.0744 25.0604Z" fill="#7A797E"/>
<path d="M12.9685 9.16057C17.6169 9.16057 21.6936 11.6065 23.9828 15.2815C24.4643 16.0544 25.6578 15.8066 25.7929 14.9061C25.9069 14.1466 25.955 13.3655 25.9309 12.5688C25.7215 5.62203 19.9914 0.0385373 13.0416 0.000201495C5.8457 -0.0394628 0 5.78189 0 12.9685C0 13.6241 0.048774 14.2682 0.142842 14.8976C0.27803 15.8022 1.47093 16.0572 1.95456 15.2809C4.24389 11.6063 8.32033 9.16057 12.9685 9.16057Z" fill="#D43464"/>
<path d="M13.0426 6.31856C7.14499 6.28605 2.15431 10.1903 0.54541 15.5566C0.974695 15.8589 1.62773 15.8069 1.95549 15.2809C4.24482 11.6063 8.32126 9.16059 12.9694 9.16059C17.6179 9.16059 21.6945 11.6066 23.9838 15.2815C24.3098 15.8049 24.9621 15.8597 25.3914 15.5612C23.7875 10.2403 18.8393 6.35051 13.0426 6.31856Z" fill="#A60D72"/>
<path d="M12.971 3.4514C13.233 3.4514 13.4455 3.23903 13.4455 2.97694V0.00927184C13.3121 0.00440079 13.1785 0.000858203 13.0442 0.000162338C12.8606 -0.000849829 12.6783 0.0029458 12.4966 0.00946162V2.97694C12.4966 3.23903 12.709 3.4514 12.971 3.4514Z" fill="#A60D72"/>
<path d="M6.58708 5.2074C6.64332 5.2074 6.70051 5.19734 6.75624 5.17608C7.00106 5.08258 7.12372 4.80835 7.03028 4.5636L6.10447 2.13876C6.08638 2.09138 6.06139 2.04874 6.03134 2.01123C5.76274 2.18172 5.50078 2.36163 5.24609 2.55084L6.14376 4.90204C6.216 5.09119 6.39604 5.2074 6.58708 5.2074Z" fill="#A60D72"/>
<path d="M18.9122 4.56362C18.8187 4.80837 18.9414 5.08261 19.1862 5.1761C19.2419 5.19736 19.2991 5.20742 19.3554 5.20742C19.5464 5.20742 19.7265 5.09121 19.7987 4.90206L20.6914 2.56402C20.4358 2.37374 20.1732 2.19243 19.9038 2.021C19.8771 2.05617 19.8546 2.09545 19.8381 2.13885L18.9122 4.56362Z" fill="#A60D72"/>
<path d="M17.5956 30.414H8.61875C8.27847 30.414 8 30.1356 8 29.7952V24.6188C8 24.2785 8.27841 24 8.61875 24H17.5956C17.9359 24 18.2144 24.2784 18.2144 24.6188V29.7952C18.2143 30.1355 17.9359 30.414 17.5956 30.414Z" fill="#7A797E"/>
<path d="M8 27.2017V29.7954C8 30.1357 8.27841 30.4142 8.61875 30.4142H17.5957C17.9359 30.4142 18.2144 30.1358 18.2144 29.7954V27.2017H8Z" fill="#403E43"/>
</svg>
