<svg width="35" height="39" viewBox="0 0 35 39" fill="none" xmlns="http://www.w3.org/2000/svg">
<path d="M13.0598 20.3415L9.64844 21.7977L12.5254 29.9798L11.8928 33.3082L11.9799 34.8334L19.081 38.0294L20.0316 36.29L24.3587 31.3694L26.0522 19.8017L22.2943 19.0366L13.0598 20.3415Z" fill="#E5C828"/>
<path d="M13.0596 20.3413L12.5252 29.9798L9.64844 21.7975L13.0596 20.3413Z" fill="#BC8F2D"/>
<path d="M24.8822 28.1722L22.5049 19.0459L26.0512 19.8016L24.8822 28.1722Z" fill="#BC8F2D"/>
<path d="M26.0521 19.8015L28.1379 25.0091L24.8828 28.1723L26.0521 19.8015Z" fill="#755800"/>
<path d="M9.64823 21.7974L8.01172 26.5792L12.525 29.9797L9.64823 21.7974Z" fill="#755800"/>
<path d="M12.5254 29.9796L19.0949 32.9964L24.3589 31.3694L19.3922 27.8994L12.5254 29.9796Z" fill="#CCAD14"/>
<path d="M18.6673 22.3521L18.5498 28.2636L19.0948 32.9961L19.6964 28.1061L18.6673 22.3521Z" fill="#BC8F2D"/>
<path d="M17.4819 25.2994H13.4629V24.6404H17.4819V25.2994Z" fill="#BC8F2D"/>
<path d="M5.76133 24.8833L12.5254 29.98L8.08639 32.407L3.87207 27.2756L5.76133 24.8833Z" fill="#BC8F2D"/>
<path d="M3.53653 23.3091L1.66309 26.1582L3.87186 27.2756L5.76112 24.8834L3.53653 23.3091Z" fill="#C3987B"/>
<path d="M3.53637 23.3091L1.10688 22.8623L0 24.8104L1.66314 26.1582L3.53637 23.3091Z" fill="#DFBDA5"/>
<path d="M5.76072 24.8835L4.76533 21.8289H3.53613V24.8835L5.01455 25.8283L5.76072 24.8835Z" fill="#DFBDA5"/>
<path d="M30.1596 22.9002L30.8251 19.8017L31.7362 19.5203L32.3089 21.2256L31.0198 23.7285L30.47 24.7264L29.8359 24.1265L30.1596 22.9002Z" fill="#DFBDA5"/>
<path d="M32.3092 24.97L34.0501 24.1899L32.3092 21.2256L31.0196 23.7285L30.4297 24.7561L31.1958 25.5464L32.3092 24.97Z" fill="#C3987B"/>
<path d="M33.8109 20.0171L34.9992 22.7769L34.0493 24.1904L32.3086 21.2261L33.8109 20.0171Z" fill="#DFBDA5"/>
<path d="M24.8818 28.1725L30.1594 22.9004L32.3091 24.9702L28.7625 29.9681L24.8818 28.1725Z" fill="#BC8F2D"/>
<path d="M12.4258 17.2512L14.6054 15.9771L14.6023 17.1728L15.1517 18.5253L12.4258 17.2512Z" fill="#755800"/>
<path d="M22.1753 15.7205L24.4359 17.383L18.667 22.3522L19.5138 18.2092L22.1753 15.7205Z" fill="#755800"/>
<path d="M15.3721 4.29893L22.666 4.69979L25.047 4L25.6505 15.2527L22.1755 15.7206L20.873 17.9L17.5715 19.0383L15.3303 17.1016L12.2412 12.2689L11.1056 9.70958L11.0752 7.2622L15.3721 4.29893Z" fill="#DFBDA5"/>
<path d="M16.2061 4.34487L17.7097 16.2591L22.1751 15.7206L20.4868 16.9872L20.797 18.3256L18.6666 22.3523L16.5662 20.0114L14.8099 18.2297L12.952 13.8721L13.0319 12.9085L12.241 12.2693L14.3456 11.1909L13.1174 8.71812L11.105 9.70976L10.2559 7.82695L14.2505 5.07212L15.3715 4.29932L16.2061 4.34487Z" fill="#C3987B"/>
<path d="M22.1169 10.9473L20.5195 7.72234L18.0205 6.46755L21.1908 6.03882L21.8136 7.08038L22.5912 9.19056L22.1169 10.9473Z" fill="#C3987B"/>
<path d="M22.9873 6.99527L23.2648 6.07664L25.1441 5.82202L23.0237 9.91257L22.9873 6.99527Z" fill="#C3987B"/>
<path d="M14.3454 11.1904L12.2402 12.2692L12.9513 13.8714L14.3454 11.1904Z" fill="#8B6651"/>
<path d="M21.9438 8.73671L18.0422 11.0006L16.8492 9.44315L16.248 9.32603L16.0381 8.87899L17.6989 8.40283L21.9438 8.73671Z" fill="#8B6651"/>
<path d="M23.1221 8.7072L25.36 9.83468L25.3346 9.36601L25.0082 8.48462L23.1221 8.7072Z" fill="#8B6651"/>
<path d="M14.404 5.39917L17.0499 11.0326L14.9511 12.4091L13.1174 8.71816L11.1052 9.70959L10.2559 7.82679L12.432 5.96166L14.404 5.39917Z" fill="#856400"/>
<path d="M22.9869 6.99512L21.8135 7.0802L22.117 10.9471L23.29 10.8591L22.9869 6.99512Z" fill="#E8CAB6"/>
<path d="M13.4043 10.8569L12.8778 9.50391L11.6748 10.0627L13.4043 10.8569Z" fill="#8B6651"/>
<path d="M18.0215 6.46728L20.3428 5.40845L21.1917 6.03834L18.0215 6.46728Z" fill="#856400"/>
<path d="M23.2646 6.07672L24.3114 5.30371L25.1435 5.82231L23.2646 6.07672Z" fill="#856400"/>
<path d="M24.9825 11.738L18.374 12.2327L20.5859 13.8074L23.4479 13.6208L24.9825 11.738Z" fill="#8B6651"/>
<path d="M24.1545 12.1997L19.5127 12.5421L20.7278 13.482L23.2067 13.3143L24.1545 12.1997Z" fill="white"/>
<path d="M23.2904 10.8589L22.6745 11.5682L22.1172 10.9469L23.2904 10.8589Z" fill="#8B6651"/>
<path d="M16.2479 9.32572L13.2707 9.02783L13.1172 8.71788L14.7622 8.54272L16.0432 8.89012L16.2479 9.32572Z" fill="#856400"/>
<path d="M22.1747 15.7205L16.3359 16.4244L20.7966 18.3253L22.1747 15.7205Z" fill="#8B6651"/>
<path d="M23.3821 0.385498L12.5055 1.2802L10.0791 4.09952L17.062 2.73219L23.3821 0.385498Z" fill="#BC8F2D"/>
<path d="M16.2053 4.34471L10.2553 7.827L10.0791 4.09925L15.1361 2.60107L16.2053 4.34471Z" fill="#755800"/>
<path d="M16.2065 4.34482L14.9648 3.63713L15.1371 2.60118L23.3831 0.385742L23.2603 2.63051L22.6658 4.6997L16.2065 4.34482Z" fill="#856400"/>
<path d="M23.3821 0.385465L22.665 4.69963L25.0461 3.99985L28.6012 0L23.3821 0.385465Z" fill="#BC8F2D"/>
<path d="M17.4499 7.396L11.5669 7.83097L11.1055 9.70962L13.1179 8.71798L17.6064 8.96511L17.6944 8.11866L17.4499 7.396Z" fill="#474747"/>
<path d="M22.9873 6.99512L21.8138 7.0802L21.6768 7.54117L21.8927 8.08266L23.0651 7.98468L23.254 7.6015L22.9873 6.99512Z" fill="#474747"/>
<path d="M26.6484 6.73047L26.8789 9.82584L23.1214 8.7073L22.987 6.99528L26.6484 6.73047ZM21.9437 8.73663L17.7619 10.5335L17.4492 7.39614L21.8135 7.08036L21.9437 8.73663Z" fill="#4F5253"/>
<path d="M17.2883 19.247L12.4258 17.2512L13.6527 20.3416L18.6664 22.3523L17.2883 19.247Z" fill="#9E7700"/>
</svg>
