<svg width="31" height="31" viewBox="0 0 31 31" fill="none" xmlns="http://www.w3.org/2000/svg">
<g clip-path="url(#clip0_74_843)">
<path d="M15.6059 25.0604C15.4828 25.0604 15.3604 25.0127 15.2683 24.9195L5.054 14.5843C4.86978 14.3979 4.87156 14.0975 5.05798 13.9134C5.24435 13.729 5.54477 13.7309 5.72892 13.9173L13.5313 21.812L8.02046 11.8366C7.89375 11.6072 7.97694 11.3186 8.20632 11.1919C8.4357 11.065 8.7243 11.1484 8.85101 11.3778L16.021 24.3566C16.1356 24.564 16.0796 24.8241 15.8899 24.966C15.8052 25.0293 15.7053 25.0604 15.6059 25.0604Z" fill="#7A797E"/>
<path d="M15.6057 25.0604C15.5063 25.0604 15.4064 25.0293 15.3217 24.9659C15.132 24.8241 15.076 24.5639 15.1905 24.3565L22.3606 11.3777C22.4873 11.1483 22.776 11.0651 23.0053 11.1918C23.2347 11.3185 23.3179 11.6071 23.1911 11.8365L17.6803 21.8119L25.4828 13.9172C25.6669 13.7308 25.9673 13.7289 26.1537 13.9133C26.3401 14.0974 26.3418 14.3979 26.1577 14.5842L15.9433 24.9195C15.8512 25.0127 15.7288 25.0604 15.6057 25.0604Z" fill="#7A797E"/>
<path d="M15.4998 9.16057C20.1482 9.16057 24.2248 11.6065 26.5141 15.2815C26.9956 16.0544 28.189 15.8066 28.3242 14.9061C28.4382 14.1466 28.4862 13.3655 28.4622 12.5688C28.2527 5.62203 22.5227 0.0385373 15.5728 0.000201495C8.37696 -0.0394628 2.53125 5.78189 2.53125 12.9685C2.53125 13.6241 2.58002 14.2682 2.67409 14.8976C2.80928 15.8022 4.00218 16.0572 4.48581 15.2809C6.77514 11.6063 10.8516 9.16057 15.4998 9.16057Z" fill="#D43464"/>
<path d="M15.5738 6.31856C9.67624 6.28605 4.68556 10.1903 3.07666 15.5566C3.50595 15.8589 4.15898 15.8069 4.48673 15.2809C6.77607 11.6063 10.8525 9.16059 15.5007 9.16059C20.1491 9.16059 24.2258 11.6066 26.515 15.2815C26.8411 15.8049 27.4933 15.8597 27.9226 15.5612C26.3187 10.2403 21.3706 6.35051 15.5738 6.31856Z" fill="#A60D72"/>
<path d="M15.5023 3.4514C15.7643 3.4514 15.9767 3.23903 15.9767 2.97694V0.00927184C15.8434 0.00440079 15.7097 0.000858203 15.5754 0.000162338C15.3919 -0.000849829 15.2095 0.0029458 15.0278 0.00946162V2.97694C15.0278 3.23903 15.2403 3.4514 15.5023 3.4514Z" fill="#A60D72"/>
<path d="M9.11833 5.2074C9.17457 5.2074 9.23176 5.19734 9.28749 5.17608C9.53231 5.08258 9.65497 4.80835 9.56153 4.5636L8.63572 2.13876C8.61763 2.09138 8.59264 2.04874 8.56259 2.01123C8.29399 2.18172 8.03203 2.36163 7.77734 2.55084L8.67501 4.90204C8.74725 5.09119 8.92729 5.2074 9.11833 5.2074Z" fill="#A60D72"/>
<path d="M21.4434 4.56362C21.35 4.80837 21.4727 5.08261 21.7175 5.1761C21.7731 5.19736 21.8304 5.20742 21.8866 5.20742C22.0777 5.20742 22.2578 5.09121 22.33 4.90206L23.2227 2.56402C22.967 2.37374 22.7045 2.19243 22.435 2.021C22.4083 2.05617 22.3859 2.09545 22.3693 2.13885L21.4434 4.56362Z" fill="#A60D72"/>
<path d="M20.0942 30.9999H11.1173C10.777 30.9999 10.4985 30.7215 10.4985 30.3812V25.2047C10.4985 24.8644 10.7769 24.5859 11.1173 24.5859H20.0942C20.4345 24.5859 20.7129 24.8643 20.7129 25.2047V30.3812C20.7129 30.7215 20.4345 30.9999 20.0942 30.9999Z" fill="#7A797E"/>
<path d="M10.4985 27.7876V30.3813C10.4985 30.7216 10.7769 31.0001 11.1173 31.0001H20.0942C20.4345 31.0001 20.7129 30.7217 20.7129 30.3813V27.7876H10.4985Z" fill="#403E43"/>
</g>
<defs>
<clipPath id="clip0_74_843">
<rect width="31" height="31" fill="white"/>
</clipPath>
</defs>
</svg>
