<svg width="112" height="112" viewBox="0 0 112 112" fill="none" xmlns="http://www.w3.org/2000/svg">
<g clip-path="url(#clip0_83_15362)">
<path d="M7.68586 111.826L8.04485 109.614L3.32694 110.49L7.68586 111.826Z" fill="#D43464"/>
<path d="M0.909816 97.2962L8.04479 109.614L3.32689 110.49L-3.06051 99.3764L0.909816 97.2962Z" fill="#D43464"/>
<path d="M3.07129 101.088L-14.8764 110.628L-16.0128 106.007L0.856428 97.2952L3.07129 101.088Z" fill="#D43464"/>
<path d="M6.32358 115.77L-3.9322 112.615L-2.70068 108.612L7.68599 111.826L6.32358 115.77Z" fill="#D43464"/>
<path d="M25.3501 110.036L21.5732 107.804L10.3747 124.981L15.9329 124.395L25.3501 110.036Z" fill="#D43464"/>
<path d="M20.6842 107.156L15.648 108.409L15.2606 112.73L25.35 110.036L20.6842 107.156Z" fill="#D43464"/>
<path d="M-13.1615 75.5539L-3.14967 78.9042L0.627232 75.1709L-13.4522 70.6443L-13.1615 75.5539Z" fill="#D43464"/>
<path d="M26.348 112.787L34.554 124.244L37.0257 119.207L29.2106 109.037L26.348 112.787Z" fill="#D43464"/>
<path d="M27.7795 110.912L37.4173 114.807L39.2598 110.774L30.4033 107.475L27.7795 110.912Z" fill="#D43464"/>
<path d="M9.35562 93.0644L4.54037 96.8444L14.4281 98.4938L16.5291 94.2609L9.35562 93.0644Z" fill="#D43464"/>
<path d="M4.54053 96.8442L11.6806 106.604L16.9155 106.282L8.33471 94.5823L4.54053 96.8442Z" fill="#D43464"/>
<path d="M17.7575 94.0673L11.4687 106.679L17.0768 106.508L22.4108 94.8435L17.7575 94.0673Z" fill="#D43464"/>
<path d="M20.0842 94.4553L21.149 104.796L25.576 104.538L24.3495 95.1667L20.0842 94.4553Z" fill="#D43464"/>
<path d="M62.4155 63.3274L62.5018 68.7259L71.5755 74.3987L72.5368 70.3666L62.4155 63.3274Z" fill="#FF954C"/>
<path fill-rule="evenodd" clip-rule="evenodd" d="M65.6161 68.6761C65.6711 72.1163 62.9268 74.9497 59.4866 75.0046C56.0464 75.0595 53.213 72.3152 53.1581 68.875C53.1031 65.4348 55.8474 62.6015 59.2876 62.5465C62.7278 62.4916 65.5612 65.2359 65.6161 68.6761ZM61.4601 68.5348C61.4766 69.5668 60.6533 70.4168 59.6213 70.4333C58.5892 70.4498 57.7392 69.6265 57.7227 68.5944C57.7062 67.5624 58.5295 66.7124 59.5616 66.6959C60.5936 66.6794 61.4436 67.5027 61.4601 68.5348Z" fill="#FF954C"/>
<path d="M83.0698 62.5918L88.2353 61.6182L95.4201 69.1623L91.7627 70.8677L83.0698 62.5918Z" fill="#FF954C"/>
<path fill-rule="evenodd" clip-rule="evenodd" d="M88.7969 64.5982C92.0885 63.9778 94.254 60.8063 93.6335 57.5147C93.013 54.223 89.8416 52.0576 86.5499 52.678C83.2583 53.2985 81.0928 56.4699 81.7133 59.7616C82.3338 63.0533 85.5052 65.2187 88.7969 64.5982ZM87.8492 60.6623C88.8367 60.4761 89.4864 59.5247 89.3002 58.5372C89.1141 57.5497 88.1626 56.9001 87.1751 57.0862C86.1876 57.2724 85.538 58.2238 85.7242 59.2113C85.9103 60.1988 86.8617 60.8484 87.8492 60.6623Z" fill="#FF954C"/>
<path d="M91.7925 22.1912L87.9476 18.5304L77.7521 20.9451L79.921 24.3943L91.7925 22.1912Z" fill="#FF954C"/>
<path fill-rule="evenodd" clip-rule="evenodd" d="M85.8484 20.7355C83.3983 18.4026 83.2918 14.5369 85.6106 12.1011C87.9293 9.66529 91.7952 9.58183 94.2453 11.9147C96.6954 14.2475 96.8019 18.1133 94.4832 20.5491C92.1644 22.9849 88.2985 23.0683 85.8484 20.7355ZM88.7953 17.936C88.0602 17.2362 88.0283 16.0764 88.7239 15.3457C89.4195 14.615 90.5793 14.5899 91.3143 15.2898C92.0494 15.9896 92.0813 17.1494 91.3857 17.8801C90.6901 18.6108 89.5303 18.6359 88.7953 17.936Z" fill="#FF954C"/>
<path d="M34.3716 73.6052L30.6428 70.0558L20.684 72.4721L22.7791 75.8249L34.3716 73.6052Z" fill="#FF954C"/>
<path fill-rule="evenodd" clip-rule="evenodd" d="M28.5823 72.22C26.2062 69.9581 26.1251 66.1866 28.4012 63.7961C30.6773 61.4057 34.4486 61.3015 36.8247 63.5634C39.2007 65.8253 39.2818 69.5968 37.0058 71.9872C34.7297 74.3777 30.9584 74.4819 28.5823 72.22ZM31.4732 69.471C30.7604 68.7924 30.736 67.6609 31.4188 66.9438C32.1017 66.2267 33.2331 66.1954 33.9459 66.874C34.6587 67.5526 34.683 68.684 34.0002 69.4011C33.3174 70.1183 32.186 70.1495 31.4732 69.471Z" fill="#FF954C"/>
<path d="M33.8584 31.2249L29.99 34.8608L31.8355 45.1745L35.3997 43.2003L33.8584 31.2249Z" fill="#FF954C"/>
<path fill-rule="evenodd" clip-rule="evenodd" d="M32.0752 37.0789C29.61 39.3959 25.7443 39.2878 23.4409 36.8375C21.1375 34.3872 21.2686 30.5226 23.7337 28.2057C26.1989 25.8887 30.0646 25.9968 32.368 28.4471C34.6714 30.8974 34.5403 34.762 32.0752 37.0789ZM29.4435 33.9814C28.7039 34.6764 27.5442 34.644 26.8532 33.9089C26.1622 33.1738 26.2015 32.0145 26.941 31.3194C27.6806 30.6243 28.8403 30.6567 29.5313 31.3918C30.2224 32.1269 30.183 33.2863 29.4435 33.9814Z" fill="#FF954C"/>
<path d="M43.7744 17.4419L44.9829 22.6114L37.7359 30.1785L35.8608 26.5612L43.7744 17.4419Z" fill="#FF954C"/>
<path fill-rule="evenodd" clip-rule="evenodd" d="M42.0183 23.3042C42.7884 26.5985 46.0675 28.6486 49.3422 27.8834C52.617 27.1182 54.6474 23.8274 53.8773 20.5331C53.1072 17.2389 49.8282 15.1887 46.5534 15.9539C43.2786 16.7191 41.2482 20.01 42.0183 23.3042ZM45.9248 22.1817C46.1559 23.17 47.1396 23.785 48.122 23.5555C49.1045 23.3259 49.7136 22.3386 49.4825 21.3504C49.2515 20.3621 48.2678 19.747 47.2854 19.9766C46.3029 20.2062 45.6938 21.1934 45.9248 22.1817Z" fill="#FF954C"/>
<path d="M18.5508 -1.21973L13.3487 -0.159919L5.9925 -7.62077L9.66199 -9.39138L18.5508 -1.21973Z" fill="#FF954C"/>
<path fill-rule="evenodd" clip-rule="evenodd" d="M12.7415 -3.14325C9.42648 -2.46785 7.28317 0.751088 7.95422 4.04645C8.62528 7.34181 11.8566 9.4657 15.1716 8.7903C18.4865 8.1149 20.6298 4.89597 19.9588 1.60061C19.2877 -1.69475 16.0564 -3.81865 12.7415 -3.14325ZM13.7516 0.793838C12.7571 0.996458 12.1141 1.96214 12.3154 2.95075C12.5167 3.93935 13.4861 4.57652 14.4806 4.3739C15.4751 4.17128 16.1181 3.2056 15.9168 2.21699C15.7154 1.22839 14.746 0.591218 13.7516 0.793838Z" fill="#FF954C"/>
<path d="M65.9878 100.655L66.8618 105.892L59.1438 112.978L57.5049 109.247L65.9878 100.655Z" fill="#FF954C"/>
<path fill-rule="evenodd" clip-rule="evenodd" d="M63.8588 106.392C64.4158 109.729 67.5564 111.986 70.8735 111.433C74.1907 110.879 76.4282 107.726 75.8713 104.389C75.3143 101.052 72.1737 98.7952 68.8565 99.3486C65.5394 99.9019 63.3018 103.056 63.8588 106.392ZM67.8293 105.523C67.9964 106.524 68.9386 107.201 69.9338 107.035C70.9289 106.869 71.6002 105.923 71.4331 104.922C71.266 103.921 70.3238 103.244 69.3287 103.41C68.3335 103.576 67.6622 104.522 67.8293 105.523Z" fill="#FF954C"/>
<path d="M34.9683 47.0369L38.9217 50.3332L37.6975 60.4613L34.1306 58.7603L34.9683 47.0369Z" fill="#FF954C"/>
<path fill-rule="evenodd" clip-rule="evenodd" d="M37.0199 52.614C39.5392 54.7145 43.2844 54.375 45.3849 51.8556C47.4855 49.3363 47.146 45.5911 44.6266 43.4906C42.1073 41.3901 38.3621 41.7296 36.2616 44.2489C34.161 46.7683 34.5006 50.5134 37.0199 52.614ZM39.4034 49.4461C40.1592 50.0762 41.2828 49.9744 41.9129 49.2186C42.5431 48.4628 42.4412 47.3392 41.6854 46.7091C40.9296 46.0789 39.8061 46.1808 39.1759 46.9366C38.5458 47.6924 38.6476 48.8159 39.4034 49.4461Z" fill="#FF954C"/>
<circle r="1.96557" transform="matrix(-0.619272 -0.785177 -0.785177 0.619272 57.5651 102.05)" fill="#D43464"/>
<circle r="1.96557" transform="matrix(-0.619272 -0.785177 -0.785177 0.619272 60.6516 99.6153)" fill="#D43464"/>
<circle r="1.96557" transform="matrix(0.658658 -0.752443 -0.752443 -0.658658 58.0383 45.4334)" fill="#D43464"/>
<circle r="1.96557" transform="matrix(0.658658 -0.752443 -0.752443 -0.658658 60.9963 48.0228)" fill="#D43464"/>
<circle r="1.96557" transform="matrix(-0.429004 -0.903303 -0.903303 0.429004 64.7411 79.1361)" fill="#D43464"/>
<circle r="1.96557" transform="matrix(-0.429004 -0.903303 -0.903303 0.429004 68.2919 77.4496)" fill="#D43464"/>
<circle r="1.96557" transform="matrix(0.417838 -0.908522 -0.908522 -0.417838 17.6869 66.1776)" fill="#D43464"/>
<circle r="1.96557" transform="matrix(0.417838 -0.908522 -0.908522 -0.417838 21.2582 67.8202)" fill="#D43464"/>
<circle r="1.96557" transform="matrix(0.417838 -0.908522 -0.908522 -0.417838 12.6249 42.0748)" fill="#D43464"/>
<circle r="1.96557" transform="matrix(0.417838 -0.908522 -0.908522 -0.417838 16.1962 43.7174)" fill="#D43464"/>
<circle r="1.96557" transform="matrix(-0.997016 -0.0772018 -0.0772018 0.997016 40.619 37.4349)" fill="#D43464"/>
<circle r="1.96557" transform="matrix(-0.997016 -0.0772018 -0.0772018 0.997016 40.9227 33.5155)" fill="#D43464"/>
<circle r="1.96557" transform="matrix(-0.842057 -0.539388 -0.539388 0.842057 76.4815 17.4538)" fill="#D43464"/>
<circle r="1.96557" transform="matrix(-0.842057 -0.539388 -0.539388 0.842057 78.6021 14.1435)" fill="#D43464"/>
<path d="M62.8894 44.592L64.6776 45.9428L66.107 41.3621L62.8894 44.592Z" fill="#D43464"/>
<path d="M65.1025 27.8335L65.5871 13.3671L69.5223 15.8768L68.8818 27.9601L65.1025 27.8335Z" fill="#D43464"/>
<path d="M79.1115 30.4522L65.2061 27.6537L65.257 22.8957L79.1053 26.3571L79.1115 30.4522Z" fill="#D43464"/>
<path d="M78.9021 45.3884L64.678 45.9427L66.1073 41.362L78.9177 40.9062L78.9021 45.3884Z" fill="#D43464"/>
<path d="M74.54 45.5286L74.4893 25.2029L79.1055 26.3567L78.9279 45.3419L74.54 45.5286Z" fill="#D43464"/>
<path d="M60.0393 41.5453L67.6199 33.9512L70.5841 36.9102L62.8895 44.592L60.0393 41.5453Z" fill="#D43464"/>
<path d="M65.879 90.29L67.1938 92.1049L69.9007 88.1427L65.879 90.29Z" fill="#D43464"/>
<path d="M72.8975 74.9121L77.5928 61.2203L80.6217 64.7715L76.4744 76.1387L72.8975 74.9121Z" fill="#D43464"/>
<path d="M85.5279 81.5143L73.0495 74.7704L74.49 70.2355L86.7199 77.5966L85.5279 81.5143Z" fill="#D43464"/>
<path d="M80.9584 95.7357L67.1944 92.1047L69.9012 88.1424L82.2845 91.4541L80.9584 95.7357Z" fill="#D43464"/>
<path d="M76.7461 94.5938L82.6436 75.1424L86.7203 77.5961L80.9966 95.6989L76.7461 94.5938Z" fill="#D43464"/>
<path d="M64.0449 86.5425L73.5154 81.4983L75.4843 85.195L65.8791 90.2898L64.0449 86.5425Z" fill="#D43464"/>
<path d="M107.246 0.551025L109.384 -13.5224L104.672 -12.6132L102.79 0.0662398L107.246 0.551025Z" fill="#D43464"/>
<path d="M107.872 -3.76807L87.6791 -6.08684L88.3104 -1.37072L107.197 0.571584L107.872 -3.76807Z" fill="#D43464"/>
<path d="M112.062 24.7188L105.587 37.6643L110.243 37.3357L115.444 26.4103L112.062 24.7188Z" fill="#D43464"/>
<path d="M125.624 29.0998L112.068 24.9262L109.843 29.1322L123.665 32.6959L125.624 29.0998Z" fill="#D43464"/>
<path d="M63.0815 -2.39649L62.4658 -0.241638L67.2539 -0.558838L63.0815 -2.39649Z" fill="#D43464"/>
<path d="M82.1165 7.64083L79.7165 -6.33885L84.1732 -8.00583L85.9342 6.15942L82.1165 7.64083Z" fill="#D43464"/>
<path d="M68.1084 12.8273L62.4659 -0.241591L67.2539 -0.558888L72.2951 11.2267L68.1084 12.8273Z" fill="#D43464"/>
<path d="M66.4062 8.80884L85.3482 1.43752L85.9353 6.15934L68.1615 12.8347L66.4062 8.80884Z" fill="#D43464"/>
<path d="M64.8966 -6.15305L74.7121 -1.81804L73.02 2.01326L63.0816 -2.39646L64.8966 -6.15305Z" fill="#D43464"/>
<path d="M6.08738 49.6672L5.47166 51.8221L10.2597 51.5049L6.08738 49.6672Z" fill="#D43464"/>
<path d="M22.5176 45.6929L28.0733 43.7614L30.2061 47.9183L23.7613 49.2639L22.5176 45.6929Z" fill="#D43464"/>
<path d="M25.1224 59.7045L22.7223 45.7249L27.179 44.0579L28.9401 58.2231L25.1224 59.7045Z" fill="#D43464"/>
<path d="M11.1142 64.891L5.47173 51.8221L10.2598 51.5048L15.301 63.2904L11.1142 64.891Z" fill="#D43464"/>
<path d="M9.41211 60.8726L28.3541 53.5012L28.9412 58.2231L11.1673 64.8984L9.41211 60.8726Z" fill="#D43464"/>
<path d="M7.9025 45.9107L17.7179 50.2457L16.0258 54.077L6.08741 49.6673L7.9025 45.9107Z" fill="#D43464"/>
<path d="M45.3169 -2.20776L48.7511 0.522615L62.2044 -14.9521L56.6184 -15.1364L45.3169 -2.20776Z" fill="#D43464"/>
<path d="M49.5426 1.28586L54.7032 0.737204L55.6809 -3.48965L45.317 -2.20795L49.5426 1.28586Z" fill="#D43464"/>
<path d="M15.8408 12.0588L18.9548 15.1495L34.0244 1.24398L28.4924 0.448003L15.8408 12.0588Z" fill="#D43464"/>
<path d="M19.6579 15.995L24.8476 16.0158L26.283 11.9217L15.8411 12.0588L19.6579 15.995Z" fill="#D43464"/>
<path d="M2.54395 6.74902L-0.0595852 10.2804L15.8947 23.1613L15.8755 17.5724L2.54395 6.74902Z" fill="#D43464"/>
<path d="M-0.793445 11.0993L-0.0572532 16.2366L4.2024 17.0597L2.5442 6.7493L-0.793445 11.0993Z" fill="#D43464"/>
<path d="M10.4497 34.0332L13.939 36.6928L27.0731 20.9463L21.4846 20.8762L10.4497 34.0332Z" fill="#D43464"/>
<path d="M14.7461 37.44L19.8944 36.7859L20.7854 32.5399L10.4499 34.0333L14.7461 37.44Z" fill="#D43464"/>
<path d="M3.69678 90.9536L-0.283346 89.1077L7.51901 70.1451L10.1877 75.0557L3.69678 90.9536Z" fill="#D43464"/>
<path d="M-1.32059 88.7423L-3.14344 83.8832L0.196733 81.1146L3.69672 90.9535L-1.32059 88.7423Z" fill="#D43464"/>
<path d="M-11.6646 49.3755L-8.17521 52.0351L4.95886 36.2886L-0.629682 36.2185L-11.6646 49.3755Z" fill="#D43464"/>
<path d="M98.1157 81.9082L94.8273 84.8126L80.5916 70.0546L86.1605 69.5815L98.1157 81.9082Z" fill="#D43464"/>
<path d="M94.0761 85.616L88.894 85.335L87.699 81.1644L98.1154 81.9083L94.0761 85.616Z" fill="#D43464"/>
<path d="M96.3608 59.3552L100.746 59.4816L101.056 79.9843L96.6669 76.5244L96.3608 59.3552Z" fill="#D43464"/>
<path d="M101.843 59.4085L105.435 63.1546L103.458 67.0162L96.3607 59.3556L101.843 59.4085Z" fill="#D43464"/>
<path d="M108.092 18.5667L110.979 15.263L96.1463 1.10501L95.7025 6.67634L108.092 18.5667Z" fill="#D43464"/>
<path d="M111.778 14.5079L111.47 9.32732L107.293 8.15426L108.091 18.5665L111.778 14.5079Z" fill="#D43464"/>
<path d="M108.247 63.0452L111.134 59.7416L96.301 45.5835L95.8573 51.1549L108.247 63.0452Z" fill="#D43464"/>
<path d="M111.933 58.9864L111.625 53.8058L107.448 52.6328L108.246 63.0451L111.933 58.9864Z" fill="#D43464"/>
<path d="M63.7246 93.4004L62.0748 89.335L42.7545 96.2041L47.5293 99.109L63.7246 93.4004Z" fill="#D43464"/>
<path d="M61.7604 88.2813L56.996 86.2239L54.0679 89.4252L63.7245 93.4004L61.7604 88.2813Z" fill="#D43464"/>
<path d="M51.4058 114.827L54.2483 111.485L39.2275 97.5267L38.8584 103.104L51.4058 114.827Z" fill="#D43464"/>
<path d="M55.0371 110.719L54.6596 105.543L50.4675 104.426L51.4053 114.827L55.0371 110.719Z" fill="#D43464"/>
<path d="M120.955 41.5815L119.37 37.4902L99.9421 44.0475L104.67 47.0288L120.955 41.5815Z" fill="#D43464"/>
<path d="M119.073 36.4316L114.342 34.2977L111.363 37.4515L120.955 41.5816L119.073 36.4316Z" fill="#D43464"/>
<path d="M34.7414 78.0045L23.8439 78.7874L23.7609 83.3074L35.1454 84.3028L34.7414 78.0045Z" fill="#D43464"/>
<path d="M31.4258 80.696L23.213 91.7506L27.4927 93.8667L35.1455 84.3029L31.4258 80.696Z" fill="#D43464"/>
<path d="M26.0332 88.0673L16.483 83.5669L12.2946 86.832L25.7467 92.9771L26.0332 88.0673Z" fill="#D43464"/>
<path d="M11.5368 26.4255L3.03694 19.561L-0.108302 22.8084L7.53403 31.305L11.5368 26.4255Z" fill="#D43464"/>
<path d="M7.27662 26.1307L-6.27051 28.6065L-4.58631 33.0739L7.5341 31.3056L7.27662 26.1307Z" fill="#D43464"/>
<path d="M118.047 -4.04424L108.683 0.8311L108.745 6.1414L121.781 -0.843196L118.047 -4.04424Z" fill="#D43464"/>
<path d="M61.9521 18.6356L51.6017 15.1374L52.658 10.7418L63.927 12.6413L61.9521 18.6356Z" fill="#D43464"/>
<path d="M59.4202 15.1968L54.2512 2.43214L58.9255 1.46025L63.9273 12.6412L59.4202 15.1968Z" fill="#D43464"/>
<path d="M56.0541 6.70639L45.6791 8.66053L42.4464 4.44709L57.0115 1.88224L56.0541 6.70639Z" fill="#D43464"/>
<path d="M46.0194 64.3964L45.7138 53.4751L50.2032 52.9427L52.3266 64.1716L46.0194 64.3964Z" fill="#D43464"/>
<path d="M48.3677 60.8296L58.5501 51.5574L61.0816 55.6052L52.327 64.1718L48.3677 60.8296Z" fill="#D43464"/>
<path d="M55.1655 54.7299L49.737 45.675L52.569 41.1825L60.0225 53.9561L55.1655 54.7299Z" fill="#D43464"/>
<path d="M2.23101 68.1043L7.45601 64.9145L-2.17039 62.118L-4.75285 66.0755L2.23101 68.1043Z" fill="#D43464"/>
<path d="M7.45605 64.9146L1.50874 54.3854L-3.72785 54.0922L3.42297 66.7163L7.45605 64.9146Z" fill="#D43464"/>
<path d="M-5.99547 66.1239L1.7278 54.3358L-3.8618 53.8487L-10.5258 64.8077L-5.99547 66.1239Z" fill="#D43464"/>
<path d="M43.5841 -3.29594L34.4691 -8.29369L32.1667 -4.50377L40.5756 -0.189744L43.5841 -3.29594Z" fill="#D43464"/>
<path d="M79.9466 54.088L79.571 47.9778L72.5968 55.1784L74.8869 59.3119L79.9466 54.088Z" fill="#D43464"/>
<path d="M79.5713 47.9778L67.4831 48.3098L64.7748 52.8012L79.2775 52.3852L79.5713 47.9778Z" fill="#D43464"/>
<path d="M74.3485 60.4326L67.5416 48.0927L64.4967 52.8054L71.0663 63.8212L74.3485 60.4326Z" fill="#D43464"/>
<path d="M72.7076 62.1269L63.5927 57.1292L61.2902 60.9191L69.6991 65.2331L72.7076 62.1269Z" fill="#D43464"/>
<path d="M45.2481 87.739L39.3115 89.233L44.0596 80.4044L48.6928 81.3339L45.2481 87.739Z" fill="#D43464"/>
<path d="M39.3115 89.2329L35.9642 77.6127L39.4235 73.6705L43.4226 87.6171L39.3115 89.2329Z" fill="#D43464"/>
<path d="M49.5973 80.4811L35.7748 77.7345L39.3429 73.4044L51.8318 76.3263L49.5973 80.4811Z" fill="#D43464"/>
<path d="M50.7147 78.4039L43.1894 71.2324L46.1032 67.8896L52.7629 74.5955L50.7147 78.4039Z" fill="#D43464"/>
<path d="M36.1849 23.3852L30.0928 23.986L36.0927 15.9555L40.5378 17.5592L36.1849 23.3852Z" fill="#D43464"/>
<path d="M30.0928 23.9861L28.4984 11.9989L32.502 8.61083L34.3974 22.9952L30.0928 23.9861Z" fill="#D43464"/>
<path d="M41.5586 16.8494L28.2934 12.0913L32.4619 8.33575L44.3822 13.0701L41.5586 16.8494Z" fill="#D43464"/>
<path d="M42.9703 14.9599L36.5868 6.75565L39.9623 3.87982L45.5586 11.4958L42.9703 14.9599Z" fill="#D43464"/>
<path d="M58.2479 25.1556L64.0309 27.1637L55.2174 31.9398L51.8538 28.6206L58.2479 25.1556Z" fill="#D43464"/>
<path d="M64.0308 27.1636L60.4539 38.7152L55.3988 40.1132L59.7071 26.2589L64.0308 27.1636Z" fill="#D43464"/>
<path d="M50.6295 28.837L60.6789 38.7171L55.3201 40.3796L46.4818 31.0848L50.6295 28.837Z" fill="#D43464"/>
<path d="M48.5554 29.961L50.9124 40.0855L46.6422 41.2816L44.7535 32.0213L48.5554 29.961Z" fill="#D43464"/>
<path d="M95.6279 41.3535L92.7289 46.7452L89.4095 37.2863L93.2197 34.4911L95.6279 41.3535Z" fill="#D43464"/>
<path d="M92.729 46.7454L81.8901 41.3833L81.3107 36.1706L94.3073 42.6197L92.729 46.7454Z" fill="#D43464"/>
<path d="M93.2003 33.2482L81.8527 41.6051L81.0603 36.0506L91.6381 28.7967L93.2003 33.2482Z" fill="#D43464"/>
<path d="M92.4191 31.0224L82.049 31.7454L81.5446 27.3396L90.9872 26.942L92.4191 31.0224Z" fill="#D43464"/>
<path d="M103.24 36.0843L97.4308 38.0158L101.509 28.8585L106.198 29.4407L103.24 36.0843Z" fill="#D43464"/>
<path d="M97.4312 38.0159L93.2287 26.6769L96.3851 22.4882L101.411 36.0987L97.4312 38.0159Z" fill="#D43464"/>
<path d="M107.038 28.5232L93.049 26.8125L96.2852 22.229L108.957 24.2136L107.038 28.5232Z" fill="#D43464"/>
<path d="M107.997 26.3684L99.959 19.7766L102.616 16.2263L109.756 22.4181L107.997 26.3684Z" fill="#D43464"/>
</g>
<defs>
<clipPath id="clip0_83_15362">
<rect y="56.7769" width="79" height="79" rx="39.5" transform="rotate(-45.9467 0 56.7769)" fill="white"/>
</clipPath>
</defs>
</svg>
