<svg width="188" height="188" viewBox="0 0 188 188" fill="none" xmlns="http://www.w3.org/2000/svg">
<g clip-path="url(#clip0_83_13817)">
<path d="M4.10791 54.8518L4.22705 62.0675L-7.64821 70.0397L-9.10746 64.695L4.10791 54.8518Z" fill="#FF954C"/>
<path fill-rule="evenodd" clip-rule="evenodd" d="M0.0643148 62.1363C0.140299 66.7344 3.92944 70.4004 8.52759 70.3244C13.1257 70.2484 16.7917 66.4593 16.7157 61.8611C16.6397 57.2629 12.8506 53.597 8.25243 53.673C3.65427 53.749 -0.0116697 57.5381 0.0643148 62.1363ZM5.61019 61.767C5.63299 63.1465 6.76973 64.2462 8.14918 64.2234C9.52862 64.2007 10.6284 63.0639 10.6056 61.6845C10.5828 60.305 9.44607 59.2052 8.06663 59.228C6.68718 59.2508 5.5874 60.3876 5.61019 61.767Z" fill="#FF954C"/>
<path d="M42.0171 67.365L46.8442 62.4613L60.2532 65.2569L57.5999 69.8269L42.0171 67.365Z" fill="#FF954C"/>
<path fill-rule="evenodd" clip-rule="evenodd" d="M49.6908 65.263C52.7668 62.1382 52.7114 57.0963 49.567 54.0017C46.4226 50.9071 41.38 50.9317 38.304 54.0565C35.228 57.1814 35.2834 62.2233 38.4278 65.3178C41.5722 68.4124 46.6148 68.3879 49.6908 65.263ZM45.7096 61.7161C46.6324 60.7787 46.6157 59.2661 45.6724 58.3377C44.7291 57.4094 43.2163 57.4167 42.2935 58.3542C41.3707 59.2916 41.3873 60.8042 42.3306 61.7326C43.274 62.6609 44.7867 62.6536 45.7096 61.7161Z" fill="#FF954C"/>
<path d="M40.8623 10.7261L46.188 15.4153L44.1703 29.2736L39.3233 26.791L40.8623 10.7261Z" fill="#FF954C"/>
<path fill-rule="evenodd" clip-rule="evenodd" d="M43.4982 18.4693C46.892 21.4575 52.0515 21.1452 55.0223 17.7719C57.9931 14.3985 57.6502 9.24149 54.2564 6.25333C50.8625 3.26516 45.703 3.57742 42.7323 6.95077C39.7615 10.3241 40.1044 15.4812 43.4982 18.4693ZM46.8794 14.217C47.8976 15.1134 49.4454 15.0197 50.3367 14.0077C51.2279 12.9957 51.125 11.4486 50.1069 10.5522C49.0887 9.65572 47.5409 9.7494 46.6496 10.7614C45.7584 11.7734 45.8613 13.3205 46.8794 14.217Z" fill="#FF954C"/>
<path d="M27.0181 -7.25586L25.6282 -0.297384L35.638 9.49674L37.9858 4.58304L27.0181 -7.25586Z" fill="#FF954C"/>
<path fill-rule="evenodd" clip-rule="evenodd" d="M29.6187 0.499308C28.733 4.93354 24.4415 7.81478 20.0335 6.93472C15.6255 6.05466 12.7702 1.74658 13.6559 -2.68766C14.5417 -7.12189 18.8332 -10.0031 23.2412 -9.12307C27.6492 -8.24301 30.5045 -3.93493 29.6187 0.499308ZM24.3513 -0.830645C24.0855 0.499626 22.7981 1.364 21.4757 1.09998C20.1533 0.835962 19.2967 -0.456463 19.5624 -1.78673C19.8282 -3.117 21.1156 -3.98137 22.438 -3.71736C23.7604 -3.45334 24.617 -2.16092 24.3513 -0.830645Z" fill="#FF954C"/>
<path d="M0.956055 104.874L0.0158972 111.907L10.634 121.038L12.6614 115.984L0.956055 104.874Z" fill="#FF954C"/>
<path fill-rule="evenodd" clip-rule="evenodd" d="M4.04963 112.446C3.45046 116.928 -0.647098 120.078 -5.10252 119.483C-9.55795 118.888 -12.6841 114.772 -12.0849 110.29C-11.4857 105.808 -7.38816 102.658 -2.93274 103.253C1.52268 103.848 4.6488 107.964 4.04963 112.446ZM-1.29238 111.457C-1.47213 112.801 -2.7014 113.747 -4.03803 113.568C-5.37465 113.389 -6.31249 112.155 -6.13274 110.81C-5.95299 109.466 -4.72372 108.52 -3.38709 108.699C-2.05046 108.877 -1.11263 110.112 -1.29238 111.457Z" fill="#FF954C"/>
<path d="M40.0669 31.8975L34.9286 36.4727L37.0038 49.9497L41.695 47.5225L40.0669 31.8975Z" fill="#FF954C"/>
<path fill-rule="evenodd" clip-rule="evenodd" d="M37.5681 39.4369C34.2937 42.3524 29.2758 42.0615 26.3603 38.7871C23.4448 35.5127 23.7358 30.4948 27.0102 27.5793C30.2845 24.6638 35.3024 24.9547 38.2179 28.2291C41.1334 31.5035 40.8425 36.5214 37.5681 39.4369ZM34.2464 35.3084C33.2641 36.183 31.7587 36.0958 30.8841 35.1134C30.0094 34.1311 30.0967 32.6258 31.079 31.7511C32.0614 30.8765 33.5667 30.9637 34.4414 31.9461C35.316 32.9284 35.2287 34.4337 34.2464 35.3084Z" fill="#FF954C"/>
<circle cx="12.2689" cy="106.371" r="2.62719" transform="rotate(-53.5986 12.2689 106.371)" fill="#D43464"/>
<circle cx="8.03986" cy="103.253" r="2.62719" transform="rotate(-53.5986 8.03986 103.253)" fill="#D43464"/>
<circle cx="83.9783" cy="96.798" r="2.62719" transform="rotate(-54.2803 83.9783 96.798)" fill="#D43464"/>
<circle cx="79.7122" cy="93.7304" r="2.62719" transform="rotate(-54.2803 79.7122 93.7304)" fill="#D43464"/>
<circle cx="9.17759" cy="30.7582" r="2.62719" transform="rotate(-133.059 9.17759 30.7582)" fill="#D43464"/>
<circle cx="5.33872" cy="34.3456" r="2.62719" transform="rotate(-133.059 5.33872 34.3456)" fill="#D43464"/>
<circle cx="1.68788" cy="76.072" r="2.62719" transform="rotate(-66.4572 1.68788 76.072)" fill="#D43464"/>
<circle cx="-3.12902" cy="73.9732" r="2.62719" transform="rotate(-66.4572 -3.12902 73.9732)" fill="#D43464"/>
<circle cx="63.9843" cy="56.7178" r="2.62719" transform="rotate(-116.56 63.9843 56.7178)" fill="#D43464"/>
<circle cx="59.2846" cy="59.0672" r="2.62719" transform="rotate(-116.56 59.2846 59.0672)" fill="#D43464"/>
<circle cx="69.6997" cy="24.2993" r="2.62719" transform="rotate(-116.56 69.6997 24.2993)" fill="#D43464"/>
<circle cx="64.9999" cy="26.6487" r="2.62719" transform="rotate(-116.56 64.9999 26.6487)" fill="#D43464"/>
<circle cx="32.1008" cy="19.3155" r="2.62719" transform="rotate(-6.28934 32.1008 19.3155)" fill="#D43464"/>
<circle cx="31.5252" cy="14.0929" r="2.62719" transform="rotate(-6.28934 31.5252 14.0929)" fill="#D43464"/>
<path d="M2.66037 29.8438L0.330121 31.726L-1.77831 25.6687L2.66037 29.8438Z" fill="#D43464"/>
<path d="M-18.6963 31.603L0.329785 31.7259L-1.77853 25.6685L-18.9117 25.6158L-18.6963 31.603Z" fill="#D43464"/>
<path d="M6.33556 25.65L-4.12114 15.8342L-7.95255 19.9158L2.66026 29.8439L6.33556 25.65Z" fill="#D43464"/>
<path d="M0.65133 91.0214L-1.02636 93.503L-4.81456 88.3275L0.65133 91.0214Z" fill="#D43464"/>
<path d="M2.9392 85.9356L-9.93154 79.6083L-12.4013 84.6322L0.651579 91.0213L2.9392 85.9356Z" fill="#D43464"/>
<path d="M78.7622 34.1579L79.6783 37.0098L73.2682 36.794L78.7622 34.1579Z" fill="#D43464"/>
<path d="M56.6411 29.562L49.1354 27.223L46.4666 32.8688L55.1347 34.3866L56.6411 29.562Z" fill="#D43464"/>
<path d="M53.7691 48.3935L56.3683 29.6138L50.3422 27.5804L48.6047 46.5802L53.7691 48.3935Z" fill="#D43464"/>
<path d="M72.7079 54.7139L79.6783 37.0102L73.2682 36.7942L67.0454 52.7574L72.7079 54.7139Z" fill="#D43464"/>
<path d="M74.8076 49.2715L49.183 40.2466L48.6036 46.58L72.6376 54.7259L74.8076 49.2715Z" fill="#D43464"/>
<path d="M76.1743 29.2184L63.2501 35.4358L65.6769 40.4805L78.7622 34.158L76.1743 29.2184Z" fill="#D43464"/>
<path d="M72.2573 13.4617L67.7114 17.1661L49.4818 -3.29938L56.9445 -3.63565L72.2573 13.4617Z" fill="#D43464"/>
<path d="M66.6659 18.1988L59.7598 17.5486L58.3851 11.9151L72.2572 13.4613L66.6659 18.1988Z" fill="#D43464"/>
<path d="M102.465 32.9973L97.9194 36.7018L79.6898 16.2363L87.1525 15.9L102.465 32.9973Z" fill="#D43464"/>
<path d="M96.8739 37.7345L89.9678 37.0843L88.5931 31.4508L102.465 32.9969L96.8739 37.7345Z" fill="#D43464"/>
<path d="M3.66406 95.0835L5.69155 89.581L31.7998 97.9185L25.5472 102.006L3.66406 95.0835Z" fill="#D43464"/>
<path d="M6.06592 88.1596L12.3414 85.2042L16.3921 89.3537L3.66438 95.0835L6.06592 88.1596Z" fill="#D43464"/>
<path d="M21.0518 123.173L17.1092 118.832L36.5695 99.5325L37.3048 106.966L21.0518 123.173Z" fill="#D43464"/>
<path d="M16.0217 117.843L16.3012 110.912L21.8531 109.237L21.0518 123.172L16.0217 117.843Z" fill="#D43464"/>
<path d="M41.7145 73.2578L56.3065 73.8305L56.6136 79.8652L41.4482 81.6892L41.7145 73.2578Z" fill="#D43464"/>
<path d="M46.2603 76.7096L57.7118 91.1208L52.0864 94.1336L41.4478 81.6896L46.2603 76.7096Z" fill="#D43464"/>
<path d="M53.7845 86.3227L66.3473 79.8959L72.0843 84.0759L54.3805 92.8694L53.7845 86.3227Z" fill="#D43464"/>
<path d="M70.4741 3.34571L81.531 -6.19362L85.8738 -1.99208L76.0333 9.69038L70.4741 3.34571Z" fill="#D43464"/>
<path d="M76.1525 2.76644L94.3576 5.48574L92.3017 11.5268L76.0332 9.69076L76.1525 2.76644Z" fill="#D43464"/>
<path d="M88.2123 4.65833L93.0095 -8.61248L100.055 -9.47209L93.1156 9.03698L88.2123 4.65833Z" fill="#D43464"/>
<path d="M26.0571 55.5683L25.9911 40.9652L19.9707 40.4489L17.6215 55.5418L26.0571 55.5683Z" fill="#D43464"/>
<path d="M22.7652 50.9055L8.75997 38.9608L5.55382 44.4782L17.6212 55.5423L22.7652 50.9055Z" fill="#D43464"/>
<path d="M13.4191 43.052L20.278 30.7198L16.2995 24.8412L6.89709 42.2292L13.4191 43.052Z" fill="#D43464"/>
<path d="M95.4822 20.9292L95.7186 12.7503L105.348 22.0667L102.468 27.6882L95.4822 20.9292Z" fill="#D43464"/>
<path d="M95.7183 12.7502L111.881 12.669L115.694 18.5514L96.3021 18.6254L95.7183 12.7502Z" fill="#D43464"/>
<path d="M103.236 29.1618L111.794 12.3814L116.066 18.5449L107.768 33.5462L103.236 29.1618Z" fill="#D43464"/>
<path d="M105.502 31.3541L117.461 24.2818L120.702 29.2448L109.656 35.373L105.502 31.3541Z" fill="#D43464"/>
<path d="M84.7155 58.6204L77.5969 54.586L90.3354 50.4321L93.9571 55.6068L84.7155 58.6204Z" fill="#D43464"/>
<path d="M77.5967 54.5862L85.0845 40.262L92.0674 39.643L83.0627 56.818L77.5967 54.5862Z" fill="#D43464"/>
<path d="M95.6187 55.6174L84.7894 40.2051L92.2354 39.3117L101.614 53.6625L95.6187 55.6174Z" fill="#D43464"/>
<path d="M98.6161 54.6401L97.9588 40.7614L103.861 40.2185L104.111 52.8483L98.6161 54.6401Z" fill="#D43464"/>
<path d="M53.1649 107.223L60.2835 111.258L47.545 115.411L43.9232 110.237L53.1649 107.223Z" fill="#D43464"/>
<path d="M60.2837 111.257L52.7958 125.581L45.813 126.201L54.8177 109.025L60.2837 111.257Z" fill="#D43464"/>
<path d="M42.2616 110.226L53.091 125.638L45.645 126.532L36.2668 112.181L42.2616 110.226Z" fill="#D43464"/>
<path d="M39.2643 111.203L39.9216 125.082L34.0193 125.625L33.7692 112.995L39.2643 111.203Z" fill="#D43464"/>
<path d="M-19.478 35.0918L-3.31501 35.0105L0.498115 40.893L-18.8942 40.967L-19.478 35.0918Z" fill="#D43464"/>
<path d="M-11.9603 51.5034L-3.40275 34.723L0.869584 40.8864L-7.42843 55.8878L-11.9603 51.5034Z" fill="#D43464"/>
<path d="M-9.69464 53.6956L2.26507 46.6233L5.50549 51.5863L-5.5407 57.7146L-9.69464 53.6956Z" fill="#D43464"/>
<path d="M28.1014 86.7185L36.097 88.4565L29.3707 76.8686L23.2215 78.3115L28.1014 86.7185Z" fill="#D43464"/>
<path d="M36.0972 88.4568L40.0643 72.788L35.2719 67.6717L30.535 86.4767L36.0972 88.4568Z" fill="#D43464"/>
<path d="M21.9758 77.2119L40.3221 72.9425L35.3674 67.3129L18.8104 71.7584L21.9758 77.2119Z" fill="#D43464"/>
<path d="M20.3932 74.4851L30.1349 64.578L26.0972 60.2388L17.4916 69.4864L20.3932 74.4851Z" fill="#D43464"/>
<path d="M37.4149 0.354184L45.5795 0.892287L37.2155 -9.57515L31.3468 -7.23984L37.4149 0.354184Z" fill="#D43464"/>
<path d="M45.5796 0.892334L47.189 -15.1906L41.6935 -19.5429L39.7859 -0.244532L45.5796 0.892334Z" fill="#D43464"/>
<path d="M8.01697 3.67742L0.378629 6.6111L12.3599 12.6088L16.7093 8.02873L8.01697 3.67742Z" fill="#D43464"/>
<path d="M0.378906 6.61108L5.65885 21.8876L12.4726 23.5357L6.11557 5.21484L0.378906 6.61108Z" fill="#D43464"/>
<path d="M18.3543 8.26478L5.35829 21.9L12.5894 23.8882L23.9928 11.0875L18.3543 8.26478Z" fill="#D43464"/>
<path d="M21.1734 9.67591L18.4644 23.3036L24.2208 24.7161L26.3419 12.2632L21.1734 9.67591Z" fill="#D43464"/>
<path d="M-19.7241 123.896L-3.77902 121.25L0.919685 126.452L-18.2149 129.604L-19.7241 123.896Z" fill="#D43464"/>
<path d="M-9.69631 138.907L-3.91151 120.98L1.28519 126.387L-4.52582 142.516L-9.69631 138.907Z" fill="#D43464"/>
<path d="M-7.1112 140.711L3.57394 131.83L7.56123 136.215L-2.37187 144.02L-7.1112 140.711Z" fill="#D43464"/>
<path d="M32.2974 199.03L31.3373 191.877L18.4045 185.768L17.7599 191.271L32.2974 199.03Z" fill="#FF954C"/>
<path fill-rule="evenodd" clip-rule="evenodd" d="M27.2109 192.431C26.5992 187.873 29.7982 183.682 34.3562 183.07C38.9141 182.459 43.1049 185.658 43.7166 190.216C44.3283 194.774 41.1293 198.964 36.5714 199.576C32.0135 200.188 27.8226 196.989 27.2109 192.431ZM32.7497 191.968C32.5662 190.6 33.5259 189.343 34.8933 189.159C36.2607 188.976 37.5179 189.936 37.7014 191.303C37.885 192.67 36.9253 193.928 35.5579 194.111C34.1905 194.295 32.9333 193.335 32.7497 191.968Z" fill="#FF954C"/>
<path d="M67.9146 180.995L73.42 185.122L86.261 180.355L82.9548 176.233L67.9146 180.995Z" fill="#FF954C"/>
<path fill-rule="evenodd" clip-rule="evenodd" d="M75.8163 181.927C79.3246 184.557 80.0229 189.551 77.3761 193.08C74.7292 196.61 69.7395 197.339 66.2312 194.708C62.7229 192.078 62.0246 187.085 64.6715 183.555C67.3183 180.025 72.308 179.296 75.8163 181.927ZM72.4095 186.029C73.462 186.818 73.6715 188.316 72.8775 189.375C72.0834 190.433 70.5865 190.652 69.534 189.863C68.4815 189.074 68.272 187.576 69.0661 186.517C69.8601 185.458 71.3571 185.239 72.4095 186.029Z" fill="#FF954C"/>
<path d="M21.7095 150.041L19.7293 143.226L28.8643 132.612L31.624 137.307L21.7095 150.041Z" fill="#FF954C"/>
<path fill-rule="evenodd" clip-rule="evenodd" d="M23.6372 142.091C22.3752 137.749 17.853 135.246 13.5364 136.5C9.21989 137.754 6.74365 142.29 8.00559 146.632C9.26753 150.975 13.7898 153.478 18.1063 152.224C22.4228 150.97 24.8991 146.433 23.6372 142.091ZM18.5028 143.867C18.1242 142.564 16.7675 141.813 15.4726 142.19C14.1776 142.566 13.4347 143.927 13.8133 145.229C14.1919 146.532 15.5486 147.283 16.8435 146.907C18.1385 146.531 18.8814 145.17 18.5028 143.867Z" fill="#FF954C"/>
<circle r="2.62719" transform="matrix(0.707009 0.707205 0.707205 -0.707009 32.6724 146.869)" fill="#D43464"/>
<circle r="2.62719" transform="matrix(0.707009 0.707205 0.707205 -0.707009 28.9566 150.584)" fill="#D43464"/>
<circle r="2.62719" transform="matrix(0.531893 0.846812 0.846812 -0.531893 26.7359 178.409)" fill="#D43464"/>
<circle r="2.62719" transform="matrix(0.531893 0.846812 0.846812 -0.531893 22.2862 181.204)" fill="#D43464"/>
<circle r="2.62719" transform="matrix(-0.308504 0.951223 0.951223 0.308504 91.2252 188.241)" fill="#D43464"/>
<circle r="2.62719" transform="matrix(-0.308504 0.951223 0.951223 0.308504 86.2271 186.62)" fill="#D43464"/>
<path d="M23.4787 163.782L21.4492 161.579L18.4766 167.263L23.4787 163.782Z" fill="#D43464"/>
<path d="M16.5703 185.294L12.4821 204.204L7.90539 199.965L11.6302 184.226L16.5703 185.294Z" fill="#D43464"/>
<path d="M-1.22896 178.508L16.3911 185.506L15.1892 191.751L-2.19763 183.895L-1.22896 178.508Z" fill="#D43464"/>
<path d="M2.60949 158.915L21.4486 161.579L18.4761 167.263L1.51983 164.806L2.60949 158.915Z" fill="#D43464"/>
<path d="M8.37988 159.771L3.59791 186.515L-2.19784 183.896L2.56463 158.97L8.37988 159.771Z" fill="#D43464"/>
<path d="M26.5001 168.469L14.7189 176.648L11.5264 172.05L23.4785 163.782L26.5001 168.469Z" fill="#D43464"/>
<path d="M-18.0005 179.956L-14.0904 175.586L7.11756 192.946L-0.200543 194.446L-18.0005 179.956Z" fill="#D43464"/>
<path d="M25.8501 159.316L28.6768 164.454L53.2467 152.31L46.4537 149.202L25.8501 159.316Z" fill="#D43464"/>
<path d="M29.2591 165.803L35.9056 167.788L39.291 163.08L25.8502 159.316L29.2591 165.803Z" fill="#D43464"/>
<path d="M38.8467 128.945L35.5968 133.826L57.7216 150.002L57.3382 142.542L38.8467 128.945Z" fill="#D43464"/>
<path d="M34.6695 134.966L35.9812 141.778L41.7208 142.604L38.847 128.945L34.6695 134.966Z" fill="#D43464"/>
<path d="M71.3588 174.579L85.7016 171.833L85.1039 165.82L69.8362 166.282L71.3588 174.579Z" fill="#D43464"/>
<path d="M75.3383 170.487L84.5086 154.527L78.4963 152.388L69.8359 166.282L75.3383 170.487Z" fill="#D43464"/>
<path d="M81.3423 159.858L94.7241 164.336L99.7724 159.346L80.9537 153.296L81.3423 159.858Z" fill="#D43464"/>
<path d="M111.439 183.262L105.003 188.315L118.219 190.519L121.027 184.862L111.439 183.262Z" fill="#D43464"/>
<path d="M105.003 188.315L114.546 201.36L121.543 200.929L110.074 185.291L105.003 188.315Z" fill="#D43464"/>
<path d="M122.669 184.603L114.263 201.46L121.759 201.231L128.888 185.641L122.669 184.603Z" fill="#D43464"/>
<path d="M125.778 185.122L127.201 198.943L133.119 198.598L131.479 186.073L125.778 185.122Z" fill="#D43464"/>
<path d="M52.2769 162.89L59.9232 159.977L55.0032 172.439L48.7075 171.931L52.2769 162.89Z" fill="#D43464"/>
<path d="M59.9229 159.976L66.186 174.877L62.2116 180.651L54.7188 162.765L59.9229 159.976Z" fill="#D43464"/>
<path d="M47.6399 173.204L66.4182 174.685L62.36 180.992L45.3247 179.07L47.6399 173.204Z" fill="#D43464"/>
<path d="M46.4821 176.137L57.5943 184.478L54.2501 189.372L44.3597 181.513L46.4821 176.137Z" fill="#D43464"/>
<path fill-rule="evenodd" clip-rule="evenodd" d="M197.949 29.4322C200.576 32.1687 200.487 36.5169 197.751 39.1443C195.015 41.7716 190.666 41.6832 188.039 38.9467C185.412 36.2103 185.5 31.862 188.237 29.2347C190.973 26.6073 195.321 26.6958 197.949 29.4322ZM194.487 32.4386C195.275 33.2595 195.248 34.564 194.428 35.3522C193.607 36.1404 192.302 36.1139 191.514 35.2929C190.726 34.472 190.752 33.1675 191.573 32.3793C192.394 31.5911 193.699 31.6176 194.487 32.4386Z" fill="#FF954C"/>
<path d="M182.359 143.516L182.475 150.731L194.603 158.314L195.888 152.924L182.359 143.516Z" fill="#FF954C"/>
<path fill-rule="evenodd" clip-rule="evenodd" d="M186.638 150.665C186.711 155.263 183.043 159.05 178.445 159.124C173.847 159.197 170.059 155.529 169.986 150.931C169.913 146.333 173.581 142.545 178.179 142.472C182.777 142.399 186.564 146.067 186.638 150.665ZM181.083 150.476C181.105 151.855 180.004 152.992 178.625 153.014C177.245 153.036 176.109 151.935 176.087 150.556C176.065 149.176 177.166 148.04 178.545 148.018C179.924 147.996 181.061 149.096 181.083 150.476Z" fill="#FF954C"/>
<path d="M144.875 157.254L139.892 152.509L126.58 155.739L129.381 160.22L144.875 157.254Z" fill="#FF954C"/>
<path fill-rule="evenodd" clip-rule="evenodd" d="M137.138 155.402C133.962 152.379 133.853 147.338 136.895 144.143C139.938 140.948 144.978 140.808 148.154 143.832C151.33 146.855 151.439 151.896 148.396 155.091C145.354 158.286 140.313 158.425 137.138 155.402ZM141.001 151.728C140.049 150.821 140.016 149.308 140.929 148.35C141.842 147.391 143.354 147.35 144.307 148.256C145.259 149.163 145.292 150.676 144.379 151.634C143.466 152.593 141.954 152.635 141.001 151.728Z" fill="#FF954C"/>
<path d="M144.191 100.607L139.02 105.467L141.487 119.252L146.251 116.613L144.191 100.607Z" fill="#FF954C"/>
<path fill-rule="evenodd" clip-rule="evenodd" d="M141.808 108.432C138.513 111.529 133.346 111.384 130.267 108.109C127.188 104.834 127.364 99.6685 130.658 96.5717C133.953 93.4748 139.12 93.6193 142.199 96.8944C145.278 100.169 145.103 105.335 141.808 108.432ZM138.29 104.291C137.302 105.221 135.752 105.177 134.828 104.195C133.904 103.212 133.957 101.663 134.945 100.733C135.934 99.8044 137.484 99.8478 138.408 100.83C139.331 101.813 139.279 103.362 138.29 104.291Z" fill="#FF954C"/>
<path d="M157.443 82.1846L159.059 89.0942L149.372 99.2084L146.866 94.3735L157.443 82.1846Z" fill="#FF954C"/>
<path fill-rule="evenodd" clip-rule="evenodd" d="M155.096 90.0201C156.125 94.4233 160.508 97.1636 164.885 96.1408C169.262 95.118 171.976 90.7194 170.947 86.3163C169.917 81.9132 165.535 79.1729 161.158 80.1957C156.78 81.2185 154.067 85.617 155.096 90.0201ZM160.317 88.5198C160.626 89.8407 161.941 90.6628 163.254 90.356C164.567 90.0491 165.382 88.7296 165.073 87.4086C164.764 86.0877 163.449 85.2656 162.136 85.5724C160.823 85.8793 160.009 87.1988 160.317 88.5198Z" fill="#FF954C"/>
<path d="M123.729 57.2417L116.776 58.6582L106.944 48.686L111.849 46.3194L123.729 57.2417Z" fill="#FF954C"/>
<path fill-rule="evenodd" clip-rule="evenodd" d="M115.965 54.6707C111.534 55.5734 108.669 59.8759 109.566 64.2805C110.463 68.6851 114.782 71.5239 119.213 70.6211C123.643 69.7184 126.508 65.4159 125.611 61.0113C124.714 56.6067 120.395 53.7679 115.965 54.6707ZM117.315 59.933C115.985 60.2038 115.126 61.4946 115.395 62.8159C115.664 64.1373 116.96 64.989 118.289 64.7181C119.618 64.4473 120.478 63.1566 120.209 61.8352C119.94 60.5138 118.644 59.6622 117.315 59.933Z" fill="#FF954C"/>
<path d="M74.1011 135.842L67.148 137.259L57.3156 127.287L62.2202 124.92L74.1011 135.842Z" fill="#FF954C"/>
<path fill-rule="evenodd" clip-rule="evenodd" d="M66.3361 133.271C61.9053 134.174 59.0406 138.476 59.9375 142.881C60.8344 147.286 65.1534 150.124 69.5842 149.222C74.0151 148.319 76.8798 144.017 75.9829 139.612C75.086 135.207 70.767 132.369 66.3361 133.271ZM67.6863 138.534C66.357 138.804 65.4976 140.095 65.7667 141.417C66.0358 142.738 67.3315 143.59 68.6607 143.319C69.9899 143.048 70.8494 141.757 70.5803 140.436C70.3112 139.114 69.0155 138.263 67.6863 138.534Z" fill="#FF954C"/>
<path d="M145.674 121.741L150.958 126.147L149.322 139.685L144.554 137.411L145.674 121.741Z" fill="#FF954C"/>
<path fill-rule="evenodd" clip-rule="evenodd" d="M148.416 129.196C151.784 132.004 156.789 131.55 159.597 128.182C162.405 124.815 161.951 119.809 158.584 117.002C155.216 114.194 150.21 114.648 147.403 118.015C144.595 121.383 145.049 126.388 148.416 129.196ZM151.602 124.962C152.612 125.804 154.114 125.668 154.956 124.658C155.799 123.647 155.663 122.146 154.652 121.303C153.642 120.461 152.14 120.597 151.298 121.607C150.456 122.618 150.592 124.119 151.602 124.962Z" fill="#FF954C"/>
<circle r="2.62719" transform="matrix(0.658658 -0.752443 -0.752443 -0.658658 176.509 119.599)" fill="#D43464"/>
<circle r="2.62719" transform="matrix(0.658658 -0.752443 -0.752443 -0.658658 180.463 123.06)" fill="#D43464"/>
<circle r="2.62719" transform="matrix(-0.429004 -0.903303 -0.903303 0.429004 185.468 164.646)" fill="#D43464"/>
<circle r="2.62719" transform="matrix(-0.429004 -0.903303 -0.903303 0.429004 190.214 162.392)" fill="#D43464"/>
<circle r="2.62719" transform="matrix(0.417838 -0.908522 -0.908522 -0.417838 122.575 147.325)" fill="#D43464"/>
<circle r="2.62719" transform="matrix(0.417838 -0.908522 -0.908522 -0.417838 127.349 149.521)" fill="#D43464"/>
<circle r="2.62719" transform="matrix(0.417838 -0.908522 -0.908522 -0.417838 115.809 115.109)" fill="#D43464"/>
<circle r="2.62719" transform="matrix(0.417838 -0.908522 -0.908522 -0.417838 120.582 117.305)" fill="#D43464"/>
<circle r="2.62719" transform="matrix(-0.997016 -0.0772018 -0.0772018 0.997016 153.227 108.908)" fill="#D43464"/>
<circle r="2.62719" transform="matrix(-0.997016 -0.0772018 -0.0772018 0.997016 153.632 103.669)" fill="#D43464"/>
<circle r="2.62719" transform="matrix(0.857932 -0.513764 -0.513764 -0.857932 178.46 5.6021)" fill="#D43464"/>
<circle r="2.62719" transform="matrix(0.857932 -0.513764 -0.513764 -0.857932 181.16 10.1099)" fill="#D43464"/>
<circle r="2.62719" transform="matrix(0.969935 0.243363 0.243363 -0.969935 142.345 40.4647)" fill="#D43464"/>
<circle r="2.62719" transform="matrix(0.969935 0.243363 0.243363 -0.969935 141.066 45.5611)" fill="#D43464"/>
<path d="M182.993 118.474L185.383 120.279L187.294 114.157L182.993 118.474Z" fill="#D43464"/>
<path d="M185.951 96.0745L186.598 76.7386L191.858 80.0931L191.002 96.2437L185.951 96.0745Z" fill="#D43464"/>
<path d="M204.675 99.5748L186.089 95.8343L186.157 89.4748L204.667 94.1013L204.675 99.5748Z" fill="#D43464"/>
<path d="M204.395 119.538L185.383 120.279L187.294 114.157L204.416 113.547L204.395 119.538Z" fill="#D43464"/>
<path d="M179.184 114.402L189.316 104.251L193.278 108.206L182.993 118.474L179.184 114.402Z" fill="#D43464"/>
<path d="M186.99 179.554L188.747 181.98L192.365 176.684L186.99 179.554Z" fill="#D43464"/>
<path d="M184.538 174.546L197.196 167.803L199.828 172.744L186.99 179.554L184.538 174.546Z" fill="#D43464"/>
<path d="M183.25 55.6687L182.427 58.5489L188.827 58.125L183.25 55.6687Z" fill="#D43464"/>
<path d="M189.969 76.0171L182.427 58.5491L188.827 58.125L195.565 73.8777L189.969 76.0171Z" fill="#D43464"/>
<path d="M185.676 50.6476L198.795 56.4418L196.534 61.5628L183.25 55.6687L185.676 50.6476Z" fill="#D43464"/>
<path d="M107.072 125.258L106.249 128.138L112.649 127.714L107.072 125.258Z" fill="#D43464"/>
<path d="M129.032 119.946L136.458 117.364L139.309 122.92L130.695 124.719L129.032 119.946Z" fill="#D43464"/>
<path d="M132.514 138.674L129.306 119.988L135.263 117.76L137.617 136.694L132.514 138.674Z" fill="#D43464"/>
<path d="M113.791 145.606L106.249 128.138L112.648 127.714L119.387 143.467L113.791 145.606Z" fill="#D43464"/>
<path d="M111.515 140.235L136.833 130.382L137.618 136.694L113.861 145.616L111.515 140.235Z" fill="#D43464"/>
<path d="M109.498 120.236L122.617 126.031L120.355 131.152L107.072 125.258L109.498 120.236Z" fill="#D43464"/>
<path d="M159.505 55.9211L164.096 59.5706L182.077 38.887L174.611 38.6406L159.505 55.9211Z" fill="#D43464"/>
<path d="M165.154 60.5907L172.052 59.8574L173.358 54.2077L159.506 55.9209L165.154 60.5907Z" fill="#D43464"/>
<path d="M120.108 74.99L124.27 79.121L144.412 60.5348L137.018 59.4709L120.108 74.99Z" fill="#D43464"/>
<path d="M125.21 80.2509L132.146 80.2787L134.065 74.8064L120.108 74.9896L125.21 80.2509Z" fill="#D43464"/>
<path d="M102.335 67.8928L98.8551 72.6129L120.18 89.8296L120.154 82.3594L102.335 67.8928Z" fill="#D43464"/>
<path d="M97.8741 73.7074L98.8581 80.5739L104.552 81.674L102.335 67.8931L97.8741 73.7074Z" fill="#D43464"/>
<path d="M112.902 104.361L117.566 107.916L135.121 86.869L127.651 86.7753L112.902 104.361Z" fill="#D43464"/>
<path d="M118.644 108.914L125.526 108.04L126.717 102.365L112.902 104.361L118.644 108.914Z" fill="#D43464"/>
<path d="M103.875 180.441L98.5546 177.974L108.983 152.628L112.55 159.192L103.875 180.441Z" fill="#D43464"/>
<path d="M97.1685 177.486L94.7321 170.991L99.1966 167.29L103.875 180.441L97.1685 177.486Z" fill="#D43464"/>
<path d="M83.3442 124.868L88.0081 128.423L105.563 107.376L98.0935 107.282L83.3442 124.868Z" fill="#D43464"/>
<path d="M89.0866 129.421L95.968 128.547L97.1589 122.872L83.3443 124.867L89.0866 129.421Z" fill="#D43464"/>
<path d="M159.018 17.1362L161.771 22.3139L138.161 36.2316L139.277 28.8452L159.018 17.1362Z" fill="#D43464"/>
<path d="M162.582 23.5398L160.605 30.189L154.812 30.4458L159.017 17.1363L162.582 23.5398Z" fill="#D43464"/>
<path d="M184.109 183.712L181.904 178.278L156.081 187.459L162.463 191.342L184.109 183.712Z" fill="#D43464"/>
<path d="M181.484 176.87L175.116 174.12L171.202 178.399L184.109 183.712L181.484 176.87Z" fill="#D43464"/>
<path d="M145.371 163.133L130.805 164.18L130.694 170.221L145.911 171.552L145.371 163.133Z" fill="#D43464"/>
<path d="M140.94 166.731L129.962 181.507L135.683 184.335L145.911 171.552L140.94 166.731Z" fill="#D43464"/>
<path d="M133.731 176.583L120.967 170.568L115.368 174.932L133.349 183.146L133.731 176.583Z" fill="#D43464"/>
<path d="M89.4378 60.4229L74.8721 61.4692L74.7612 67.5107L89.9778 68.8412L89.4378 60.4229Z" fill="#D43464"/>
<path d="M85.0067 64.0206L74.0293 78.7963L79.7496 81.6247L89.9784 68.8416L85.0067 64.0206Z" fill="#D43464"/>
<path d="M77.7984 73.8728L65.0335 67.8575L59.4353 72.2217L77.4154 80.4354L77.7984 73.8728Z" fill="#D43464"/>
<path d="M135.991 55.9212L135.969 41.318L129.95 40.7834L127.555 55.8691L135.991 55.9212Z" fill="#D43464"/>
<path d="M132.713 51.2482L118.744 39.2611L115.521 44.7688L127.555 55.8694L132.713 51.2482Z" fill="#D43464"/>
<path d="M123.39 43.3665L130.287 31.0551L126.326 25.1645L116.871 42.5239L123.39 43.3665Z" fill="#D43464"/>
<path d="M114.356 94.1927L102.995 85.0176L98.7911 89.358L109.006 100.715L114.356 94.1927Z" fill="#D43464"/>
<path d="M108.662 93.7983L90.5545 97.1076L92.8056 103.079L109.006 100.715L108.662 93.7983Z" fill="#D43464"/>
<path d="M96.6697 96.081L91.444 82.973L84.3738 82.3427L91.9114 100.617L96.6697 96.081Z" fill="#D43464"/>
<path d="M190.9 24.2264L179.539 15.0513L175.335 19.3917L185.55 30.7483L190.9 24.2264Z" fill="#D43464"/>
<path d="M185.206 23.832L167.098 27.1413L169.35 33.1124L185.55 30.7488L185.206 23.832Z" fill="#D43464"/>
<path d="M173.214 26.1146L167.988 13.0067L160.918 12.3764L168.455 30.6503L173.214 26.1146Z" fill="#D43464"/>
<path d="M189.469 11.3536L179.936 0.291394L184.14 -4.04901L195.817 5.79798L189.469 11.3536Z" fill="#D43464"/>
<path d="M181.74 83.7802L167.906 79.1046L169.318 73.2294L184.38 75.7683L181.74 83.7802Z" fill="#D43464"/>
<path d="M178.356 79.1841L171.447 62.1227L177.695 60.8237L184.38 75.7682L178.356 79.1841Z" fill="#D43464"/>
<path d="M173.857 67.8355L159.99 70.4474L155.669 64.8157L175.137 61.3875L173.857 67.8355Z" fill="#D43464"/>
<path d="M160.445 144.945L160.036 130.347L166.037 129.636L168.875 144.644L160.445 144.945Z" fill="#D43464"/>
<path d="M163.583 140.177L177.193 127.784L180.577 133.194L168.875 144.645L163.583 140.177Z" fill="#D43464"/>
<path d="M172.67 132.024L165.414 119.922L169.199 113.917L179.162 130.99L172.67 132.024Z" fill="#D43464"/>
<path d="M101.916 149.901L108.9 145.637L96.0333 141.899L92.5816 147.189L101.916 149.901Z" fill="#D43464"/>
<path d="M108.9 145.637L100.951 131.564L93.9519 131.172L103.51 148.045L108.9 145.637Z" fill="#D43464"/>
<path d="M90.9217 147.253L101.245 131.497L93.7735 130.846L84.8664 145.494L90.9217 147.253Z" fill="#D43464"/>
<path d="M87.8938 146.374L88.0999 132.481L82.183 132.13L82.3433 144.761L87.8938 146.374Z" fill="#D43464"/>
<path d="M166.865 43.7218L166.363 35.5548L157.041 45.1792L160.102 50.7041L166.865 43.7218Z" fill="#D43464"/>
<path d="M166.363 35.5547L150.206 35.9985L146.586 42.0017L165.97 41.4457L166.363 35.5547Z" fill="#D43464"/>
<path d="M159.382 52.2018L150.284 35.7082L146.214 42.0073L154.995 56.7311L159.382 52.2018Z" fill="#D43464"/>
<path d="M157.189 54.4666L145.006 47.7866L141.928 52.8522L153.168 58.6184L157.189 54.4666Z" fill="#D43464"/>
<path d="M205.291 122.999L189.133 123.443L185.513 129.446L204.898 128.89L205.291 122.999Z" fill="#D43464"/>
<path d="M198.31 139.646L189.212 123.153L185.142 129.452L193.923 144.176L198.31 139.646Z" fill="#D43464"/>
<path d="M196.117 141.911L183.934 135.231L180.856 140.297L192.096 146.063L196.117 141.911Z" fill="#D43464"/>
<path d="M159.413 176.144L151.479 178.141L157.825 166.341L164.018 167.583L159.413 176.144Z" fill="#D43464"/>
<path d="M151.479 178.141L147.004 162.609L151.628 157.34L156.973 175.981L151.479 178.141Z" fill="#D43464"/>
<path d="M165.227 166.444L146.751 162.772L151.521 156.985L168.213 160.89L165.227 166.444Z" fill="#D43464"/>
<path d="M166.72 163.667L156.662 154.082L160.557 149.613L169.458 158.577L166.72 163.667Z" fill="#D43464"/>
<path d="M147.299 90.1286L139.156 90.9317L147.176 80.198L153.117 82.3415L147.299 90.1286Z" fill="#D43464"/>
<path d="M139.156 90.9319L137.025 74.9098L142.376 70.3812L144.91 89.6074L139.156 90.9319Z" fill="#D43464"/>
<path d="M154.482 81.3929L136.751 75.0333L142.323 70.0135L158.256 76.3415L154.482 81.3929Z" fill="#D43464"/>
<path d="M156.369 78.8674L147.837 67.9015L152.349 64.0577L159.829 74.2372L156.369 78.8674Z" fill="#D43464"/>
<path d="M176.789 92.4951L184.518 95.1791L172.738 101.563L168.242 97.1265L176.789 92.4951Z" fill="#D43464"/>
<path d="M184.519 95.179L179.738 110.619L172.981 112.488L178.74 93.9698L184.519 95.179Z" fill="#D43464"/>
<path d="M166.606 97.4157L180.038 110.622L172.876 112.844L161.062 100.42L166.606 97.4157Z" fill="#D43464"/>
<path d="M163.834 98.9177L166.984 112.45L161.277 114.049L158.752 101.671L163.834 98.9177Z" fill="#D43464"/>
<path d="M74.1815 122.87L77.0287 121.94L73.0941 116.875L74.1815 122.87Z" fill="#D43464"/>
<path d="M57.4844 107.649L41.9822 96.0744L47.7399 93.6727L60.5083 103.6L57.4844 107.649Z" fill="#D43464"/>
<path d="M71.0518 94.2782L57.3662 107.398L52.1848 103.71L66.554 91.1589L71.0518 94.2782Z" fill="#D43464"/>
<path d="M87.2792 105.91L77.029 121.939L73.0942 116.874L82.3733 102.471L87.2792 105.91Z" fill="#D43464"/>
<path d="M84.103 110.803L61.7637 95.3422L66.5534 91.1582L87.2479 105.846L84.103 110.803Z" fill="#D43464"/>
<path d="M68.6629 123.672L66.1179 109.557L71.6272 108.564L74.1815 122.87L68.6629 123.672Z" fill="#D43464"/>
</g>
<defs>
<clipPath id="clip0_83_13817">
<rect y="95.3237" width="132.635" height="132.635" rx="66.3174" transform="rotate(-45.9467 0 95.3237)" fill="white"/>
</clipPath>
</defs>
</svg>
