<svg width="324" height="324" viewBox="0 0 324 324" fill="none" xmlns="http://www.w3.org/2000/svg">
<g clip-path="url(#clip0_82_7637)">
<path d="M227.359 39.0151L211.031 39.6079L192.454 13.0849L204.487 9.5425L227.359 39.0151Z" fill="#FF954C"/>
<path fill-rule="evenodd" clip-rule="evenodd" d="M210.689 30.1884C200.284 30.5663 192.156 39.3073 192.534 49.712C192.912 60.1167 201.653 68.245 212.058 67.8671C222.462 67.4892 230.591 58.7482 230.213 48.3435C229.835 37.9389 221.094 29.8105 210.689 30.1884ZM211.773 42.7252C208.652 42.8386 206.213 45.4609 206.327 48.5823C206.44 51.7037 209.062 54.1422 212.184 54.0288C215.305 53.9154 217.744 51.2931 217.63 48.1717C217.517 45.0503 214.895 42.6118 211.773 42.7252Z" fill="#FF954C"/>
<path d="M23.5859 284.858L9.58058 298.863L-28.8063 290.653L-21.0488 277.575L23.5859 284.858Z" fill="#FF954C"/>
<path fill-rule="evenodd" clip-rule="evenodd" d="M1.50111 290.783C-7.4236 299.708 -7.4236 314.178 1.50111 323.102C10.4258 332.027 24.8956 332.027 33.8204 323.102C42.7451 314.178 42.7451 299.708 33.8204 290.783C24.8956 281.859 10.4258 281.859 1.50111 290.783ZM12.8128 301.018C10.1354 303.695 10.1354 308.036 12.8128 310.713C15.4903 313.391 19.8312 313.391 22.5086 310.713C25.186 308.036 25.186 303.695 22.5086 301.018C19.8312 298.34 15.4903 298.34 12.8128 301.018Z" fill="#FF954C"/>
<path fill-rule="evenodd" clip-rule="evenodd" d="M-49.1717 220.878C-56.2617 210.842 -53.8736 196.959 -43.8378 189.869C-33.802 182.779 -19.9188 185.167 -12.8288 195.203C-5.73878 205.238 -8.12686 219.122 -18.1627 226.212C-28.1985 233.302 -42.0817 230.914 -49.1717 220.878ZM-36.6295 212.925C-38.7565 209.914 -38.0401 205.749 -35.0293 203.622C-32.0186 201.495 -27.8536 202.212 -25.7266 205.222C-23.5996 208.233 -24.316 212.398 -27.3268 214.525C-30.3375 216.652 -34.5025 215.936 -36.6295 212.925Z" fill="#FF954C"/>
<path d="M51.1636 101.487L70.6378 101.654L91.3399 134.037L76.8223 137.591L51.1636 101.487Z" fill="#FF954C"/>
<path fill-rule="evenodd" clip-rule="evenodd" d="M70.5408 112.822C82.9506 112.928 93.0972 103.013 93.2039 90.6773C93.3105 78.3411 83.3368 68.2548 70.927 68.1487C58.5172 68.0427 48.3706 77.9572 48.2639 90.2934C48.1573 102.63 58.131 112.716 70.5408 112.822ZM69.9205 97.9245C73.6435 97.9563 76.6875 94.9819 76.7194 91.2811C76.7514 87.5802 73.7593 84.5543 70.0364 84.5225C66.3134 84.4907 63.2695 87.465 63.2375 91.1659C63.2055 94.8667 66.1976 97.8926 69.9205 97.9245Z" fill="#FF954C"/>
<path d="M180.765 273.15L181.678 292.604L150.493 315.07L146.14 300.772L180.765 273.15Z" fill="#FF954C"/>
<path fill-rule="evenodd" clip-rule="evenodd" d="M170.522 293.126C171.105 305.523 181.567 315.104 193.89 314.526C206.213 313.949 215.73 303.431 215.148 291.034C214.565 278.638 204.103 269.056 191.78 269.634C179.457 270.212 169.94 280.73 170.522 293.126ZM185.362 291.681C185.537 295.4 188.676 298.274 192.372 298.101C196.069 297.927 198.925 294.772 198.75 291.053C198.575 287.334 195.437 284.46 191.74 284.633C188.043 284.806 185.187 287.962 185.362 291.681Z" fill="#FF954C"/>
<path d="M189.812 211.524L173.434 222.062L173.217 260.496L187.39 255.75L189.812 211.524Z" fill="#FF954C"/>
<path fill-rule="evenodd" clip-rule="evenodd" d="M179.478 231.453C169.041 238.168 155.169 235.202 148.493 224.828C141.817 214.454 144.865 200.6 155.302 193.885C165.739 187.171 179.611 190.137 186.287 200.511C192.963 210.885 189.915 224.738 179.478 231.453ZM172.049 218.525C168.918 220.54 164.756 219.65 162.754 216.538C160.751 213.426 161.665 209.27 164.796 207.255C167.927 205.241 172.089 206.13 174.092 209.243C176.095 212.355 175.18 216.511 172.049 218.525Z" fill="#FF954C"/>
<path d="M303.904 226.725L314.906 242.794L353.331 241.909L348.181 227.878L303.904 226.725Z" fill="#FF954C"/>
<path fill-rule="evenodd" clip-rule="evenodd" d="M324.121 236.483C331.132 246.723 328.565 260.675 318.386 267.646C308.208 274.616 294.273 271.966 287.261 261.726C280.25 251.486 282.818 237.534 292.996 230.563C303.175 223.593 317.11 226.243 324.121 236.483ZM311.411 244.279C313.515 247.351 312.744 251.537 309.691 253.628C306.637 255.719 302.457 254.924 300.353 251.852C298.25 248.78 299.02 244.595 302.074 242.503C305.127 240.412 309.308 241.207 311.411 244.279Z" fill="#FF954C"/>
<path d="M137.486 311.981L118.656 310.577L96.033 340.389L109.773 345.01L137.486 311.981Z" fill="#FF954C"/>
<path fill-rule="evenodd" clip-rule="evenodd" d="M117.846 321.44C105.846 320.545 96.8442 310.092 97.7391 298.093C98.6339 286.094 109.087 277.092 121.086 277.987C133.086 278.881 142.088 289.334 141.193 301.334C140.298 313.333 129.845 322.335 117.846 321.44ZM119.65 307.01C116.05 306.741 113.35 303.605 113.618 300.006C113.887 296.406 117.022 293.705 120.622 293.974C124.222 294.242 126.923 297.378 126.654 300.978C126.386 304.578 123.25 307.278 119.65 307.01Z" fill="#FF954C"/>
<circle cx="80.7876" cy="248.88" r="7.21038" transform="rotate(-87.1125 80.7876 248.88)" fill="#D43464"/>
<circle cx="66.3853" cy="248.153" r="7.21038" transform="rotate(-87.1125 66.3853 248.153)" fill="#D43464"/>
<circle cx="32.1099" cy="-1.66045" r="7.21038" transform="rotate(-30.097 32.1099 -1.66045)" fill="#D43464"/>
<circle cx="147.1" cy="272.258" r="7.21038" transform="rotate(39.6574 147.1 272.258)" fill="#D43464"/>
<circle cx="156.303" cy="261.156" r="7.21038" transform="rotate(39.6574 156.303 261.156)" fill="#D43464"/>
<circle cx="294.61" cy="20.4196" r="7.21038" transform="rotate(-105 294.61 20.4196)" fill="#D43464"/>
<circle cx="280.681" cy="24.152" r="7.21038" transform="rotate(-105 280.681 24.152)" fill="#D43464"/>
<circle cx="299.239" cy="158.106" r="7.21038" transform="rotate(-150 299.239 158.106)" fill="#D43464"/>
<circle cx="292.029" cy="170.595" r="7.21038" transform="rotate(-150 292.029 170.595)" fill="#D43464"/>
<circle cx="103.598" cy="128.082" r="7.21038" transform="rotate(11.4431 103.598 128.082)" fill="#D43464"/>
<circle cx="106.459" cy="113.948" r="7.21038" transform="rotate(11.4431 106.459 113.948)" fill="#D43464"/>
<path d="M70.1528 234.28L61.9933 233.275L69.9176 217.557L70.1528 234.28Z" fill="#D43464"/>
<path d="M107.092 184.474L142.736 145.118L125.961 141.688L96.8103 175.162L107.092 184.474Z" fill="#D43464"/>
<path d="M63.4939 155.62L107.277 183.735L119.286 171.068L73.9616 144.846L63.4939 155.62Z" fill="#D43464"/>
<path d="M25.927 195.511L61.9927 233.274L69.9174 217.556L37.3254 183.661L25.927 195.511Z" fill="#D43464"/>
<path d="M37.0635 207.013L89.0716 153.585L73.9634 144.844L25.9778 195.323L37.0635 207.013Z" fill="#D43464"/>
<path d="M85.4389 233.526L84.8452 194.168L69.4828 194.4L70.1528 234.28L85.4389 233.526Z" fill="#D43464"/>
<path d="M147.581 4.32153L188.496 38.1642L172.386 43.9624L138.74 15.0104L147.581 4.32153Z" fill="#D43464"/>
<path d="M108.567 39.1238L147.87 5.0262L161.57 15.842L120.471 48.2875L108.567 39.1238Z" fill="#D43464"/>
<path d="M65.6721 5.02666L95.9554 -37.514L106.05 -23.0934L78.6507 15.1216L65.6721 5.02666Z" fill="#D43464"/>
<path d="M75.0454 -7.95239L134.172 37.4735L120.472 48.2892L65.749 5.20577L75.0454 -7.95239Z" fill="#D43464"/>
<path d="M15.6474 -0.613348L10.6611 -7.14965L1.09343 7.62591L15.6474 -0.613348Z" fill="#D43464"/>
<path d="M-40.1443 -19.2178L10.6607 -7.14971L1.09326 7.62606L-44.6192 -3.39603L-40.1443 -19.2178Z" fill="#D43464"/>
<path d="M22.7142 12.9625L-11.5592 32.3192L-19.1148 18.9411L15.648 -0.61337L22.7142 12.9625Z" fill="#D43464"/>
<circle cx="188.266" cy="75.8594" r="7.21038" transform="rotate(-58.3216 188.266 75.8594)" fill="#D43464"/>
<circle cx="175.994" cy="68.2864" r="7.21038" transform="rotate(-58.3216 175.994 68.2864)" fill="#D43464"/>
<path d="M189.568 109.975L185.691 117.224L173.884 104.168L189.568 109.975Z" fill="#D43464"/>
<path d="M156.418 57.5706L146.709 38.3022L130.48 43.8122L144.027 63.806L156.418 57.5706Z" fill="#D43464"/>
<path d="M113.794 87.8426L155.796 57.1314L148.307 41.3648L107.515 74.1956L113.794 87.8426Z" fill="#D43464"/>
<path d="M137.468 137.26L185.69 117.224L173.883 104.168L130.521 122.358L137.468 137.26Z" fill="#D43464"/>
<path d="M152.21 131.017L121.111 63.2502L107.513 74.1937L137.311 137.145L152.21 131.017Z" fill="#D43464"/>
<path d="M194.373 95.444L157.446 81.8161L152.126 96.2301L189.569 109.975L194.373 95.444Z" fill="#D43464"/>
<path d="M173.723 340.217L164.013 320.949L147.784 326.459L161.332 346.453L173.723 340.217Z" fill="#D43464"/>
<path d="M235.897 155.811L219.88 154.241L223.925 79.1303L239.114 92.9009L235.897 155.811Z" fill="#D43464"/>
<path d="M215.846 154.232L203.648 139.616L211.86 125.983L235.897 155.811L215.846 154.232Z" fill="#D43464"/>
<path d="M277.156 268.633L261.063 268.829L256.843 193.728L273.452 205.749L277.156 268.633Z" fill="#D43464"/>
<path d="M257.052 269.263L243.325 256.072L249.991 241.621L277.156 268.632L257.052 269.263Z" fill="#D43464"/>
<path d="M325.743 288.575L323.591 304.525L248.677 297.748L262.992 283.071L325.743 288.575Z" fill="#D43464"/>
<path d="M323.435 308.556L308.384 320.214L295.059 311.511L325.742 288.575L323.435 308.556Z" fill="#D43464"/>
<path d="M235.28 340.294L219.298 338.397L224.877 263.385L239.782 277.463L235.28 340.294Z" fill="#D43464"/>
<path d="M215.265 338.306L203.369 323.443L211.857 309.981L235.28 340.294L215.265 338.306Z" fill="#D43464"/>
<path d="M310.916 80.282L295.601 85.2322L315.572 157.752L327.475 141.059L310.916 80.282Z" fill="#D43464"/>
<path d="M291.662 86.1013L282.862 102.983L293.792 114.551L310.916 80.2829L291.662 86.1013Z" fill="#D43464"/>
<path d="M17.4653 50.3384L18.2893 34.2651L93.5068 34.814L80.4572 50.627L17.4653 50.3384Z" fill="#D43464"/>
<path d="M18.1105 30.2355L32.1442 17.3712L46.144 24.9402L17.4659 50.3385L18.1105 30.2355Z" fill="#D43464"/>
<path d="M282.252 200.711L310.179 171.964L323.065 182.402L298.981 216.715L282.252 200.711Z" fill="#D43464"/>
<path d="M297.637 197.758L348.064 200.799L343.901 217.811L298.981 216.717L297.637 197.758Z" fill="#D43464"/>
<path d="M251.83 317.473L291.746 321.078L291.746 337.662L249.924 340.546L251.83 317.473Z" fill="#D43464"/>
<path d="M48.94 -34.6487L61.1725 2.09728L47.4554 15.9307L30.9315 -35.7436L48.94 -34.6487Z" fill="#D43464"/>
<path d="M234.525 33.3837L274.441 36.9889L274.441 53.5727L232.619 56.4567L234.525 33.3837Z" fill="#D43464"/>
<path d="M246.503 43.4787L275.881 84.5772L260.042 92.0503L232.618 56.4574L246.503 43.4787Z" fill="#D43464"/>
<path d="M265.787 70.8778L301.118 55.0148L316.259 67.2724L266.507 88.9052L265.787 70.8778Z" fill="#D43464"/>
<path d="M261.924 10.7369L301.841 7.13174L301.841 -9.45213L260.018 -12.3361L261.924 10.7369Z" fill="#D43464"/>
<path d="M273.903 0.641878L303.281 -40.4566L287.441 -47.9297L260.017 -12.3368L273.903 0.641878Z" fill="#D43464"/>
<path d="M251.585 12.8851L247.899 -27.0239L231.315 -26.9903L228.516 14.8378L251.585 12.8851Z" fill="#D43464"/>
<path d="M241.466 0.927156L200.308 -28.3672L192.867 -12.5128L228.515 14.8391L241.466 0.927156Z" fill="#D43464"/>
<path d="M138.867 168.277L175.068 185.476L183.503 171.197L148.962 147.442L138.867 168.277Z" fill="#D43464"/>
<path d="M154.315 165.678L200.513 145.235L190.677 130.745L148.961 147.441L154.315 165.678Z" fill="#D43464"/>
<path d="M184.854 151.896L207.205 183.524L226.476 180.672L194.643 136.741L184.854 151.896Z" fill="#D43464"/>
<path d="M64.06 329.52L92.7383 301.522L82.2678 288.662L48.0144 312.831L64.06 329.52Z" fill="#D43464"/>
<path d="M66.9755 314.129L63.8093 263.709L46.8079 267.914L48.0131 312.831L66.9755 314.129Z" fill="#D43464"/>
<path d="M64.6304 280.706L102.044 270.701L106.047 251.635L53.8071 266.272L64.6304 280.706Z" fill="#D43464"/>
<path d="M137.968 -18.5668L174.742 -8.47297L171.136 7.38975L137.968 -2.70378L137.968 -18.5668Z" fill="#D43464"/>
<path d="M244.682 117.708L261.266 102.567V139.34L244.682 144.387V117.708Z" fill="#D43464"/>
<path d="M261.266 102.566L292.27 134.292L287.944 153.039L250.791 114.93L261.266 102.566Z" fill="#D43464"/>
<path d="M243.24 148.713L292.67 133.57L288.666 153.759L243.24 166.019L243.24 148.713Z" fill="#D43464"/>
<path d="M243.24 157.366L280.013 167.46L276.407 183.323L243.24 173.229L243.24 157.366Z" fill="#D43464"/>
<path d="M0.970703 215.77L17.5546 200.628V237.401L0.970703 242.448V215.77Z" fill="#D43464"/>
<path d="M17.5547 200.628L48.5595 232.354L44.2333 251.101L7.08028 212.991L17.5547 200.628Z" fill="#D43464"/>
<path d="M-0.470778 246.775L48.9588 231.631L44.9546 251.82L-0.47047 264.08L-0.470778 246.775Z" fill="#D43464"/>
<path d="M-0.47096 255.428L36.3021 265.521L32.6965 281.384L-0.471086 271.291L-0.47096 255.428Z" fill="#D43464"/>
<path d="M194.643 246.555L209.163 263.687L213.848 227.213L198.042 220.094L194.643 246.555Z" fill="#D43464"/>
<path d="M209.163 263.687L243.957 236.17L242.055 217.025L200.349 250.09L209.163 263.687Z" fill="#D43464"/>
<path d="M197.164 215.62L244.261 236.937L242.862 216.403L199.369 198.455L197.164 215.62Z" fill="#D43464"/>
<path d="M198.266 207.037L236.026 201.711L234.471 185.518L200.287 191.303L198.266 207.037Z" fill="#D43464"/>
<path d="M131.988 194.913L111.625 185.445L122.659 220.523L139.993 220.362L131.988 194.913Z" fill="#D43464"/>
<path d="M111.625 185.445L91.568 225.012L101.32 241.597L125.326 194.095L111.625 185.445Z" fill="#D43464"/>
<path d="M142.666 224.057L90.9707 224.443L100.848 242.5L147.859 240.565L142.666 224.057Z" fill="#D43464"/>
<path d="M145.263 232.311L113.213 252.973L121.412 267.023L150.023 247.443L145.263 232.311Z" fill="#D43464"/>
<path d="M-7.84793 142.191L-13.9698 163.797L18.9172 147.344L16.0113 130.255L-7.84793 142.191Z" fill="#D43464"/>
<path d="M-13.9702 163.797L28.2751 177.331L43.1055 165.074L-7.5996 148.898L-13.9702 163.797Z" fill="#D43464"/>
<path d="M19.2353 127.03L27.8078 178.011L44.0719 165.398L34.7125 119.287L19.2353 127.03Z" fill="#D43464"/>
<path d="M26.9738 123.158L52.4537 151.529L65.027 141.208L41.1604 116.061L26.9738 123.158Z" fill="#D43464"/>
<path d="M-14.4577 108.882L-4.0804 128.797L8.54469 94.2592L-5.2983 83.8251L-14.4577 108.882Z" fill="#D43464"/>
<path d="M-4.08057 128.797L35.932 109.644L38.3051 90.5516L-9.67359 113.589L-4.08057 128.797Z" fill="#D43464"/>
<path d="M-5.1668 79.2666L36.0592 110.46L39.2298 90.1232L0.775028 63.0128L-5.1668 79.2666Z" fill="#D43464"/>
<path d="M-2.19601 71.1394L35.8073 74.2842L37.867 58.1478L3.25005 56.2406L-2.19601 71.1394Z" fill="#D43464"/>
</g>
<defs>
<clipPath id="clip0_82_7637">
<rect x="-512" width="836" height="836" rx="418" fill="white"/>
</clipPath>
</defs>
</svg>
