<svg width="410" height="802" viewBox="0 0 410 802" fill="none" xmlns="http://www.w3.org/2000/svg">
<g clip-path="url(#clip0_82_9182)">
<path d="M430.119 280.378L410.57 283.56L384.215 254.468L398.152 248.387L430.119 280.378Z" fill="#FF954C"/>
<path fill-rule="evenodd" clip-rule="evenodd" d="M408.735 272.282C396.277 274.31 387.822 286.053 389.85 298.51C391.878 310.968 403.621 319.423 416.079 317.395C428.536 315.367 436.991 303.624 434.963 291.166C432.935 278.709 421.192 270.254 408.735 272.282ZM411.935 287.197C408.197 287.806 405.661 291.328 406.269 295.066C406.878 298.803 410.4 301.339 414.138 300.731C417.875 300.123 420.411 296.6 419.803 292.862C419.195 289.125 415.672 286.589 411.935 287.197Z" fill="#FF954C"/>
<path d="M419.41 205.324L419.583 186.043L387.693 164.982L383.902 179.291L419.41 205.324Z" fill="#FF954C"/>
<path fill-rule="evenodd" clip-rule="evenodd" d="M408.459 185.943C408.569 173.656 418.619 163.784 430.906 163.895C443.193 164.005 453.065 174.055 452.954 186.342C452.844 198.629 442.794 208.5 430.507 208.39C418.22 208.28 408.349 198.23 408.459 185.943ZM423.284 186.818C423.317 183.131 426.332 180.17 430.018 180.203C433.704 180.236 436.666 183.251 436.633 186.937C436.6 190.623 433.585 193.585 429.899 193.552C426.212 193.519 423.251 190.504 423.284 186.818Z" fill="#FF954C"/>
<path d="M411.156 388.29L426.386 399.457L424.106 436.98L410.644 431.585L411.156 388.29Z" fill="#FF954C"/>
<path fill-rule="evenodd" clip-rule="evenodd" d="M419.905 408.298C429.61 415.413 443.281 413.265 450.439 403.5C457.598 393.735 455.533 380.05 445.828 372.934C436.123 365.818 422.453 367.966 415.294 377.731C408.136 387.497 410.2 401.182 419.905 408.298ZM427.96 396.08C430.872 398.215 434.973 397.571 437.121 394.641C439.268 391.711 438.649 387.606 435.737 385.471C432.826 383.336 428.725 383.981 426.577 386.91C424.43 389.84 425.049 393.945 427.96 396.08Z" fill="#FF954C"/>
<path d="M445.579 52.0557L426.112 51.5017L404.226 83.0971L418.602 87.185L445.579 52.0557Z" fill="#FF954C"/>
<path fill-rule="evenodd" clip-rule="evenodd" d="M425.796 62.6656C413.391 62.3125 403.618 52.0294 403.968 39.6978C404.317 27.3661 414.657 17.6556 427.063 18.0088C439.468 18.3619 449.241 28.645 448.891 40.9766C448.541 53.3083 438.201 63.0188 425.796 62.6656ZM426.967 47.8013C423.245 47.6954 420.314 44.6105 420.418 40.911C420.523 37.2115 423.625 34.2983 427.347 34.4043C431.069 34.5102 434 37.5951 433.895 41.2946C433.791 44.9941 430.689 47.9073 426.967 47.8013Z" fill="#FF954C"/>
<path d="M293.024 291.635L273.551 291.868L252.959 324.322L267.489 327.825L293.024 291.635Z" fill="#FF954C"/>
<path fill-rule="evenodd" clip-rule="evenodd" d="M273.686 303.035C261.276 303.184 251.096 293.304 250.947 280.968C250.798 268.633 260.738 258.512 273.147 258.364C285.556 258.215 295.737 268.095 295.886 280.431C296.034 292.767 286.095 302.887 273.686 303.035ZM274.255 288.136C270.532 288.18 267.478 285.216 267.434 281.516C267.389 277.815 270.371 274.779 274.093 274.734C277.816 274.69 280.87 277.654 280.915 281.355C280.96 285.055 277.978 288.091 274.255 288.136Z" fill="#FF954C"/>
<circle cx="293.439" cy="322.952" r="7.21038" transform="rotate(28.102 293.439 322.952)" fill="#D43464"/>
<circle cx="300.232" cy="310.231" r="7.21038" transform="rotate(28.102 300.232 310.231)" fill="#D43464"/>
<circle cx="371.532" cy="282.213" r="7.21038" transform="rotate(15.2434 371.532 282.213)" fill="#D43464"/>
<circle cx="375.324" cy="268.3" r="7.21038" transform="rotate(15.2434 375.324 268.3)" fill="#D43464"/>
<path d="M330.522 285.32L323.118 281.747L335.673 269.409L330.522 285.32Z" fill="#D43464"/>
<path d="M381.507 250.026L427.907 224.212L413.124 215.573L374.763 237.904L381.507 250.026Z" fill="#D43464"/>
<path d="M349.493 208.693L381.919 249.386L397.362 241.25L362.868 201.854L349.493 208.693Z" fill="#D43464"/>
<path d="M301.1 234.397L323.118 281.746L335.674 269.408L315.702 226.838L301.1 234.397Z" fill="#D43464"/>
<path d="M307.949 248.867L374.368 214.985L362.87 201.852L301.208 234.235L307.949 248.867Z" fill="#D43464"/>
<path d="M345.24 289.518L357.325 252.058L342.702 247.341L330.522 285.321L345.24 289.518Z" fill="#D43464"/>
<path d="M339.924 163.496L331.565 177.249L394.066 219.101L392.17 198.687L339.924 163.496Z" fill="#D43464"/>
<path d="M329.15 180.481L333.518 199.01L349.35 200.626L339.924 163.496L329.15 180.481Z" fill="#D43464"/>
<path d="M422.495 155.236L419.201 139.482L344.969 151.632L360.302 165.242L422.495 155.236Z" fill="#D43464"/>
<path d="M418.755 135.473L402.905 124.929L390.241 134.567L422.494 155.236L418.755 135.473Z" fill="#D43464"/>
<path d="M401.479 114.708L411.539 102.146L472.26 146.541L452.43 151.749L401.479 114.708Z" fill="#D43464"/>
<path d="M413.749 98.771L432.654 96.5312L439.593 110.854L401.479 114.709L413.749 98.771Z" fill="#D43464"/>
<path d="M320.685 295.112L336.431 298.438L324.131 372.646L310.553 357.284L320.685 295.112Z" fill="#D43464"/>
<path d="M340.44 298.892L350.953 314.764L341.288 327.409L320.685 295.113L340.44 298.892Z" fill="#D43464"/>
<path d="M251.29 353.461L261.518 341.034L321.639 386.238L301.741 391.18L251.29 353.461Z" fill="#D43464"/>
<path d="M263.772 337.689L282.705 335.703L289.452 350.117L251.29 353.461L263.772 337.689Z" fill="#D43464"/>
<path d="M395.032 389.802L399.258 429.658L382.991 432.883L372.029 392.42L395.032 389.802Z" fill="#D43464"/>
<path d="M387.459 403.515L352.858 440.324L342.447 426.241L372.028 392.419L387.459 403.515Z" fill="#D43464"/>
<path d="M364.333 427.759L386.763 459.33L377.684 476.567L346.79 431.971L364.333 427.759Z" fill="#D43464"/>
<path d="M353.083 358.165L351.53 380.568L380.336 357.71L373.981 341.582L353.083 358.165Z" fill="#D43464"/>
<path d="M351.53 380.568L395.655 385.134L407.651 370.092L354.704 364.678L351.53 380.568Z" fill="#D43464"/>
<path d="M376.475 337.763L395.338 385.896L408.664 370.21L390.031 327.006L376.475 337.763Z" fill="#D43464"/>
<path d="M383.253 332.384L414.018 354.916L424.202 342.231L395.679 322.524L383.253 332.384Z" fill="#D43464"/>
<path d="M53.2739 660.394L63.8352 647.928L54.4759 616.929L44.252 624.195L53.2739 660.394Z" fill="#FF954C"/>
<path fill-rule="evenodd" clip-rule="evenodd" d="M56.6437 641.835C63.3739 633.892 75.2696 632.908 83.2134 639.638C91.1572 646.368 92.141 658.264 85.4108 666.208C78.6805 674.152 66.7849 675.135 58.8411 668.405C50.8973 661.675 49.9135 649.779 56.6437 641.835ZM65.8265 650.439C67.8456 648.056 71.4143 647.761 73.7974 649.78C76.1806 651.799 76.4757 655.368 74.4566 657.751C72.4376 660.134 68.8689 660.429 66.4857 658.41C64.1026 656.391 63.8074 652.822 65.8265 650.439Z" fill="#FF954C"/>
<path d="M372.485 652.246L392.152 649.898L409.434 614.651L394.359 612.662L372.485 652.246Z" fill="#FF954C"/>
<path fill-rule="evenodd" clip-rule="evenodd" d="M390.797 638.552C403.33 637.056 414.702 646.002 416.198 658.535C417.695 671.067 408.748 682.44 396.215 683.936C383.683 685.432 372.311 676.485 370.814 663.953C369.318 651.42 378.265 640.048 390.797 638.552ZM391.847 653.77C395.607 653.321 399.019 656.005 399.467 659.765C399.916 663.525 397.232 666.936 393.472 667.385C389.713 667.834 386.301 665.15 385.852 661.39C385.403 657.631 388.087 654.219 391.847 653.77Z" fill="#FF954C"/>
<path d="M127.035 370.261L138.957 355.106L126.591 318.945L114.844 327.953L127.035 370.261Z" fill="#FF954C"/>
<path fill-rule="evenodd" clip-rule="evenodd" d="M130.214 348.228C137.812 338.57 151.799 336.901 161.457 344.498C171.114 352.095 172.784 366.083 165.187 375.741C157.589 385.398 143.601 387.068 133.944 379.47C124.287 371.873 122.617 357.885 130.214 348.228ZM141.413 357.982C143.692 355.084 147.889 354.583 150.786 356.863C153.683 359.142 154.184 363.338 151.905 366.235C149.626 369.133 145.429 369.634 142.532 367.354C139.635 365.075 139.134 360.879 141.413 357.982Z" fill="#FF954C"/>
<path d="M362.022 577.157L356.524 558.675L381.346 529.617L388.947 542.32L362.022 577.157Z" fill="#FF954C"/>
<path fill-rule="evenodd" clip-rule="evenodd" d="M367.187 555.503C363.683 543.726 351.295 537.019 339.517 540.522C327.74 544.026 321.033 556.414 324.537 568.192C328.04 579.969 340.428 586.676 352.206 583.172C363.983 579.669 370.69 567.281 367.187 555.503ZM353.181 560.443C352.13 556.91 348.414 554.898 344.881 555.949C341.347 557 339.335 560.717 340.386 564.25C341.438 567.783 345.154 569.795 348.687 568.744C352.22 567.693 354.233 563.977 353.181 560.443Z" fill="#FF954C"/>
<path d="M89.7671 438.062L73.3478 427.951L72.4771 389.744L86.611 394.146L89.7671 438.062Z" fill="#FF954C"/>
<path fill-rule="evenodd" clip-rule="evenodd" d="M79.1805 418.479C68.7173 412.036 55.0124 415.296 48.5698 425.759C42.1272 436.222 45.3865 449.927 55.8496 456.369C66.3128 462.812 80.0177 459.553 86.4603 449.09C92.903 438.626 89.6437 424.922 79.1805 418.479ZM72.0351 431.498C68.8961 429.565 64.7846 430.543 62.8518 433.682C60.9191 436.821 61.8968 440.932 65.0358 442.865C68.1748 444.798 72.2862 443.82 74.219 440.681C76.1518 437.542 75.174 433.431 72.0351 431.498Z" fill="#FF954C"/>
<path d="M211.315 560.541L199.405 575.95L212.057 612.243L223.826 603.03L211.315 560.541Z" fill="#FF954C"/>
<path fill-rule="evenodd" clip-rule="evenodd" d="M208.243 582.779C200.653 592.598 186.587 594.443 176.826 586.899C167.064 579.355 165.304 565.28 172.893 555.461C180.483 545.642 194.549 543.798 204.31 551.341C214.072 558.885 215.832 572.96 208.243 582.779ZM196.918 573.08C194.641 576.026 190.421 576.579 187.493 574.316C184.564 572.053 184.036 567.831 186.313 564.885C188.59 561.939 192.81 561.386 195.738 563.649C198.666 565.912 199.195 570.135 196.918 573.08Z" fill="#FF954C"/>
<path d="M420.552 750.706L409.004 765.648L421.572 801.078L433.017 792.17L420.552 750.706Z" fill="#FF954C"/>
<path fill-rule="evenodd" clip-rule="evenodd" d="M417.677 772.352C410.319 781.874 396.587 783.59 387.007 776.186C377.427 768.781 375.627 755.059 382.985 745.536C390.344 736.014 404.076 734.298 413.655 741.703C423.235 749.108 425.036 762.83 417.677 772.352ZM406.557 762.839C404.35 765.695 400.23 766.21 397.356 763.989C394.483 761.767 393.942 757.651 396.15 754.794C398.358 751.937 402.477 751.422 405.351 753.644C408.225 755.865 408.765 759.982 406.557 762.839Z" fill="#FF954C"/>
<path d="M266.1 768.54L280.824 781.286L317.763 770.667L309.217 758.405L266.1 768.54Z" fill="#FF954C"/>
<path fill-rule="evenodd" clip-rule="evenodd" d="M288.132 772.841C297.515 780.964 298.577 795.11 290.503 804.438C282.43 813.766 268.279 814.743 258.896 806.621C249.513 798.498 248.452 784.352 256.525 775.024C264.598 765.696 278.75 764.719 288.132 772.841ZM277.821 783.611C280.635 786.048 280.954 790.292 278.532 793.09C276.11 795.888 271.865 796.182 269.05 793.745C266.235 791.308 265.916 787.064 268.338 784.266C270.76 781.467 275.006 781.174 277.821 783.611Z" fill="#FF954C"/>
<path d="M212.071 737.547L230.48 731.191L260.821 754.785L248.328 762.989L212.071 737.547Z" fill="#FF954C"/>
<path fill-rule="evenodd" clip-rule="evenodd" d="M234.124 741.748C245.854 737.697 252.1 724.96 248.075 713.298C244.049 701.637 231.276 695.467 219.546 699.518C207.815 703.569 201.569 716.306 205.595 727.968C209.62 739.629 222.393 745.799 234.124 741.748ZM228.556 727.916C232.076 726.7 233.949 722.879 232.742 719.381C231.534 715.883 227.702 714.032 224.183 715.247C220.664 716.462 218.79 720.283 219.998 723.782C221.205 727.28 225.037 729.131 228.556 727.916Z" fill="#FF954C"/>
<path d="M294.488 437.102L313.043 431.187L342.813 455.497L330.128 463.401L294.488 437.102Z" fill="#FF954C"/>
<path fill-rule="evenodd" clip-rule="evenodd" d="M316.435 441.828C328.258 438.058 334.807 425.473 331.06 413.719C327.314 401.965 314.692 395.493 302.868 399.263C291.044 403.032 284.496 415.617 288.242 427.371C291.989 439.125 304.611 445.598 316.435 441.828ZM311.199 427.867C314.746 426.736 316.71 422.96 315.586 419.434C314.463 415.908 310.676 413.966 307.129 415.097C303.582 416.228 301.617 420.004 302.741 423.53C303.865 427.056 307.652 428.998 311.199 427.867Z" fill="#FF954C"/>
<path d="M323.378 758.534L333.917 742.867L371.335 743.519L366.472 757.175L323.378 758.534Z" fill="#FF954C"/>
<path fill-rule="evenodd" clip-rule="evenodd" d="M342.956 748.947C349.671 738.963 347.022 725.425 337.038 718.709C327.054 711.993 313.516 714.642 306.8 724.626C300.084 734.61 302.733 748.148 312.717 754.864C322.702 761.58 336.24 758.931 342.956 748.947ZM330.498 741.443C332.513 738.447 331.718 734.386 328.723 732.371C325.728 730.356 321.666 731.151 319.652 734.146C317.637 737.142 318.432 741.203 321.427 743.218C324.422 745.233 328.484 744.438 330.498 741.443Z" fill="#FF954C"/>
<circle r="7.21038" transform="matrix(-0.965915 0.258858 0.258858 0.965915 181.61 354.677)" fill="#D43464"/>
<circle r="7.21038" transform="matrix(-0.965915 0.258858 0.258858 0.965915 177.877 340.748)" fill="#D43464"/>
<circle r="7.21038" transform="matrix(0.545291 0.838247 0.838247 -0.545291 53.3298 395.537)" fill="#D43464"/>
<circle r="7.21038" transform="matrix(0.545291 0.838247 0.838247 -0.545291 41.2415 403.401)" fill="#D43464"/>
<circle r="7.21038" transform="matrix(-0.725684 0.688029 0.688029 0.725684 307.02 465.684)" fill="#D43464"/>
<circle r="7.21038" transform="matrix(-0.725684 0.688029 0.688029 0.725684 297.099 455.219)" fill="#D43464"/>
<circle r="7.21038" transform="matrix(-0.816091 -0.577924 -0.577924 0.816091 308.84 674.958)" fill="#D43464"/>
<circle r="7.21038" transform="matrix(-0.816091 -0.577924 -0.577924 0.816091 317.174 663.189)" fill="#D43464"/>
<circle r="7.21038" transform="matrix(-0.94662 -0.322351 -0.322351 0.94662 404.381 800.736)" fill="#D43464"/>
<circle r="7.21038" transform="matrix(-0.929063 0.369923 0.369923 0.929063 142.028 481.79)" fill="#D43464"/>
<circle r="7.21038" transform="matrix(-0.929063 0.369923 0.369923 0.929063 136.693 468.392)" fill="#D43464"/>
<circle r="7.21038" transform="matrix(-0.814646 -0.579959 -0.579959 0.814646 -9.13131 462.842)" fill="#D43464"/>
<circle r="7.21038" transform="matrix(0.02557 0.999673 0.999673 -0.02557 286.213 741.53)" fill="#D43464"/>
<circle r="7.21038" transform="matrix(0.02557 0.999673 0.999673 -0.02557 271.797 741.899)" fill="#D43464"/>
<circle r="7.21038" transform="matrix(-0.192254 0.981345 0.981345 0.192254 -2.06377 580.137)" fill="#D43464"/>
<circle r="7.21038" transform="matrix(-0.599133 -0.80065 -0.80065 0.599133 -2.92255 701.752)" fill="#D43464"/>
<circle r="7.21038" transform="matrix(-0.599133 -0.80065 -0.80065 0.599133 8.62334 693.112)" fill="#D43464"/>
<circle r="7.21038" transform="matrix(0.142494 -0.989796 -0.989796 -0.142494 102.429 790.522)" fill="#D43464"/>
<circle r="7.21038" transform="matrix(0.142494 -0.989796 -0.989796 -0.142494 116.703 792.577)" fill="#D43464"/>
<circle r="7.21038" transform="matrix(-0.450084 0.892987 0.892987 0.450084 199.797 618.196)" fill="#D43464"/>
<circle r="7.21038" transform="matrix(-0.450084 0.892987 0.892987 0.450084 186.919 611.706)" fill="#D43464"/>
<path d="M137.636 221.637L129.729 219.389L130.916 236.952L137.636 221.637Z" fill="#D43464"/>
<path d="M152.298 281.888L169.831 332.007L153.043 328.644L139.205 286.468L152.298 281.888Z" fill="#D43464"/>
<path d="M100.911 291.515L152.181 282.641L158.319 298.981L106.365 305.512L100.911 291.515Z" fill="#D43464"/>
<path d="M81.8153 240.154L129.728 219.39L130.916 236.953L87.7079 255.505L81.8153 240.154Z" fill="#D43464"/>
<path d="M96.5479 233.888L123.683 303.337L106.365 305.515L81.7884 240.347L96.5479 233.888Z" fill="#D43464"/>
<path d="M151.426 228.276L135.573 264.305L121.51 258.117L137.636 221.637L151.426 228.276Z" fill="#D43464"/>
<path d="M9.39378 386.67L5.04075 379.696L22.2438 375.966L9.39378 386.67Z" fill="#D43464"/>
<path d="M71.3472 384.045L124.363 386.989L116.475 371.792L72.1161 370.195L71.3472 384.045Z" fill="#D43464"/>
<path d="M66.3437 332.005L72.0381 383.725L89.4396 385.089L81.3044 333.362L66.3437 332.005Z" fill="#D43464"/>
<path d="M11.7015 327.903L5.04128 379.695L22.2444 375.966L28.0839 329.307L11.7015 327.903Z" fill="#D43464"/>
<path d="M9.76807 343.796L84.0183 350.604L81.3069 333.361L11.8799 327.824L9.76807 343.796Z" fill="#D43464"/>
<path d="M19.5976 398.077L49.8152 372.853L39.9694 361.059L9.39391 386.67L19.5976 398.077Z" fill="#D43464"/>
<path d="M303.941 657.572L308.197 650.538L290.943 647.047L303.941 657.572Z" fill="#D43464"/>
<path d="M241.958 655.809L188.988 659.489L196.663 644.185L240.996 641.971L241.958 655.809Z" fill="#D43464"/>
<path d="M246.237 603.703L241.262 655.498L223.882 657.104L231.296 605.268L246.237 603.703Z" fill="#D43464"/>
<path d="M300.817 598.842L308.197 650.537L290.944 647.047L284.456 600.474L300.817 598.842Z" fill="#D43464"/>
<path d="M302.971 614.707L228.822 622.547L231.294 605.268L300.637 598.766L302.971 614.707Z" fill="#D43464"/>
<path d="M293.897 669.12L263.332 644.318L273.013 632.388L303.941 657.572L293.897 669.12Z" fill="#D43464"/>
<path d="M410.809 609.634L359.079 597.658L370.897 585.268L413.937 596.12L410.809 609.634Z" fill="#D43464"/>
<path d="M430.144 561.06L410.235 609.133L393.145 605.585L415.399 558.186L430.144 561.06Z" fill="#D43464"/>
<path d="M481.177 588.179L407.979 573.985L415.396 558.185L483.608 572.252L481.177 588.179Z" fill="#D43464"/>
<path d="M67.7684 514.697L74.3724 509.801L79.4649 526.651L67.7684 514.697Z" fill="#D43464"/>
<path d="M75.3335 576.243L76.6342 629.325L91.1521 620.248L89.2009 575.903L75.3335 576.243Z" fill="#D43464"/>
<path d="M126.808 567.098L75.7084 576.906L75.7383 594.361L126.65 582.12L126.808 567.098Z" fill="#D43464"/>
<path d="M126.532 512.303L74.3736 509.801L79.4657 526.651L126.442 528.745L126.532 512.303Z" fill="#D43464"/>
<path d="M110.536 511.645L109.68 586.202L126.651 582.122L126.625 512.475L110.536 511.645Z" fill="#D43464"/>
<path d="M57.2131 525.779L84.7701 553.885L95.7409 543.129L67.7686 514.697L57.2131 525.779Z" fill="#D43464"/>
<path d="M153.029 469.499L150.975 461.539L168.504 463.155L153.029 469.499Z" fill="#D43464"/>
<path d="M212.904 485.628L262.581 504.379L259.628 487.514L217.803 472.65L212.904 485.628Z" fill="#D43464"/>
<path d="M223.783 434.491L213.66 485.53L229.845 492.064L237.643 440.285L223.783 434.491Z" fill="#D43464"/>
<path d="M172.904 414.147L150.976 461.538L168.504 463.155L188.106 420.413L172.904 414.147Z" fill="#D43464"/>
<path d="M166.28 428.722L235.046 457.546L237.645 440.286L173.098 414.125L166.28 428.722Z" fill="#D43464"/>
<path d="M159.33 483.447L195.735 468.478L189.892 454.268L153.029 469.499L159.33 483.447Z" fill="#D43464"/>
<path d="M175.476 393.079L174.262 384.948L191.527 388.38L175.476 393.079Z" fill="#D43464"/>
<path d="M233.346 415.353L280.801 439.173L279.62 422.092L239.569 402.955L233.346 415.353Z" fill="#D43464"/>
<path d="M249.489 365.626L234.108 415.333L249.525 423.517L262.671 372.831L249.489 365.626Z" fill="#D43464"/>
<path d="M201.004 340.096L174.262 384.947L191.527 388.379L215.471 347.91L201.004 340.096Z" fill="#D43464"/>
<path d="M192.899 353.903L258.291 389.728L262.673 372.832L201.199 340.094L192.899 353.903Z" fill="#D43464"/>
<path d="M180.29 407.606L218.055 396.509L213.723 381.768L175.476 393.079L180.29 407.606Z" fill="#D43464"/>
<circle r="7.21038" transform="matrix(-0.993545 -0.113441 -0.113441 0.993545 106.402 652.451)" fill="#D43464"/>
<circle r="7.21038" transform="matrix(-0.993545 -0.113441 -0.113441 0.993545 108.038 638.123)" fill="#D43464"/>
<path d="M132.41 674.567L140.505 676.003L137.544 658.651L132.41 674.567Z" fill="#D43464"/>
<path d="M111.72 616.112L102.58 596.567L116.945 587.219L124.282 610.229L111.72 616.112Z" fill="#D43464"/>
<path d="M161.867 601.329L111.76 615.352L103.998 599.717L155.023 587.956L161.867 601.329Z" fill="#D43464"/>
<path d="M186.068 650.49L140.505 676.002L137.544 658.65L178.651 635.816L186.068 650.49Z" fill="#D43464"/>
<path d="M172.046 658.217L138.014 591.874L155.023 587.954L186.075 650.296L172.046 658.217Z" fill="#D43464"/>
<path d="M118.019 669.359L130.14 631.91L144.758 636.642L132.41 674.568L118.019 669.359Z" fill="#D43464"/>
<path d="M323.164 804.474L314.024 784.929L328.389 775.58L335.726 798.59L323.164 804.474Z" fill="#D43464"/>
<path d="M373.312 789.69L323.204 803.713L315.443 788.079L366.468 776.318L373.312 789.69Z" fill="#D43464"/>
<path d="M383.49 846.578L349.458 780.236L366.467 776.315L397.519 838.657L383.49 846.578Z" fill="#D43464"/>
<path d="M139.79 739.32L148.459 725.761L86.9257 682.498L88.3569 702.951L139.79 739.32Z" fill="#D43464"/>
<path d="M150.946 722.585L147 703.961L131.208 701.985L139.789 739.32L150.946 722.585Z" fill="#D43464"/>
<path d="M202.95 841.504L213.055 828.977L156.639 779.226L155.818 799.712L202.95 841.504Z" fill="#D43464"/>
<path d="M215.875 826.094L213.997 807.149L198.517 803.453L202.95 841.504L215.875 826.094Z" fill="#D43464"/>
<path d="M285.164 852.901L293.555 839.167L231.15 797.172L232.999 817.591L285.164 852.901Z" fill="#D43464"/>
<path d="M22.062 449.645L37.7575 453.206L24.3511 527.221L11.0032 511.659L22.062 449.645Z" fill="#D43464"/>
<path d="M41.7583 453.719L52.0326 469.747L42.1805 482.245L22.0618 449.646L41.7583 453.719Z" fill="#D43464"/>
<path d="M426.841 514.979L438.677 525.884L390.187 583.388L386.364 563.246L426.841 514.979Z" fill="#D43464"/>
<path d="M34.0444 751.58L47.4038 742.605L92.0522 803.14L71.5727 802.173L34.0444 751.58Z" fill="#D43464"/>
<path d="M50.5218 740.046L69.231 743.568L71.5645 759.311L34.0445 751.581L50.5218 740.046Z" fill="#D43464"/>
<path d="M345.206 529.875L344.016 513.825L418.712 504.973L407.741 522.292L345.206 529.875Z" fill="#D43464"/>
<path d="M343.335 509.849L355.651 495.333L370.487 501.093L345.207 529.875L343.335 509.849Z" fill="#D43464"/>
<path d="M191.951 502.431L178.809 493.141L132.733 552.597L153.23 552.118L191.951 502.431Z" fill="#D43464"/>
<path d="M175.752 490.509L156.964 493.584L154.257 509.267L191.95 502.432L175.752 490.509Z" fill="#D43464"/>
<path d="M354.194 485.116L341.052 475.826L294.977 535.282L315.473 534.803L354.194 485.116Z" fill="#D43464"/>
<path d="M337.995 473.194L319.208 476.27L316.5 491.952L354.194 485.117L337.995 473.194Z" fill="#D43464"/>
<path d="M271.087 446.828L256.754 454.15L287.999 522.573L297.097 504.2L271.087 446.828Z" fill="#D43464"/>
<path d="M253.004 455.634L247 473.7L259.63 483.383L271.088 446.829L253.004 455.634Z" fill="#D43464"/>
<path d="M90.1299 287.917L75.0808 293.623L98.6324 365.06L109.691 347.796L90.1299 287.917Z" fill="#D43464"/>
<path d="M71.19 294.687L63.2402 311.985L74.732 322.995L90.1303 287.918L71.19 294.687Z" fill="#D43464"/>
<path d="M-14.26 564.131L-0.0174033 551.499L-6.10272 536.793L-34.3223 562.7L-14.26 564.131Z" fill="#D43464"/>
<path d="M-40.5102 416.779L6.33969 397.878L-3.01103 383.07L-45.2568 398.374L-40.5102 416.779Z" fill="#D43464"/>
<path d="M-9.53166 404.016L11.7588 436.368L31.1142 434.156L0.754588 389.194L-9.53166 404.016Z" fill="#D43464"/>
<path d="M59.203 489.507L94.8293 507.867L103.721 493.868L69.9659 469.009L59.203 489.507Z" fill="#D43464"/>
<path d="M74.727 487.409L121.561 468.47L112.199 453.669L69.9653 469.008L74.727 487.409Z" fill="#D43464"/>
<path d="M105.695 474.621L127.012 506.955L146.366 504.727L115.969 459.79L105.695 474.621Z" fill="#D43464"/>
<path d="M44.4168 662.544L22.5699 696.145L35.6038 706.399L63.7293 675.313L44.4168 662.544Z" fill="#D43464"/>
<path d="M44.9447 678.201L59.0813 726.701L74.7482 718.873L63.7307 675.312L44.9447 678.201Z" fill="#D43464"/>
<path d="M54.5557 710.297L20.2432 728.257L20.5148 747.736L68.2788 722.01L54.5557 710.297Z" fill="#D43464"/>
<path d="M9.67688 670.076L-17.8369 699.219L-30.8709 688.965L-7.27881 654.312L9.67688 670.076Z" fill="#D43464"/>
<path d="M17.7582 663.278L-11.3288 635.705L-1.04854 622.692L33.5566 646.355L17.7582 663.278Z" fill="#D43464"/>
<path d="M14.6166 647.931L17.041 597.471L34.1024 601.425L33.5579 646.355L14.6166 647.931Z" fill="#D43464"/>
<path d="M16.4699 614.478L-21.0871 605.024L-25.3702 586.02L27.0798 599.886L16.4699 614.478Z" fill="#D43464"/>
<path d="M209.581 670.768L200.715 709.853L184.277 707.654L186.964 665.819L209.581 670.768Z" fill="#D43464"/>
<path d="M197.986 681.302L153.356 704.971L148.049 688.28L186.964 665.818L197.986 681.302Z" fill="#D43464"/>
<path d="M168.273 696.782L179.311 733.904L165.154 747.287L150.309 695.105L168.273 696.782Z" fill="#D43464"/>
<path d="M382.561 711.671L342.825 716.899L339.191 700.718L379.365 688.741L382.561 711.671Z" fill="#D43464"/>
<path d="M368.662 704.445L330.993 670.783L344.81 660.021L379.366 688.74L368.662 704.445Z" fill="#D43464"/>
<path d="M343.844 681.937L312.847 705.156L295.388 696.514L339.191 664.506L343.844 681.937Z" fill="#D43464"/>
<path d="M31.2277 531.149L9.07332 534.82L37.9747 557.557L52.1954 547.644L31.2277 531.149Z" fill="#D43464"/>
<path d="M9.07324 534.82L14.8377 578.804L32.2466 586.995L25.2666 534.232L9.07324 534.82Z" fill="#D43464"/>
<path d="M56.4872 549.186L14.0231 578.672L32.3663 588.007L70.0884 559.886L56.4872 549.186Z" fill="#D43464"/>
<path d="M63.2879 554.536L48.4843 589.678L63.1807 596.653L75.7554 564.344L63.2879 554.536Z" fill="#D43464"/>
<path d="M104.411 722.665L82.2569 726.337L111.158 749.074L125.379 739.161L104.411 722.665Z" fill="#D43464"/>
<path d="M82.2568 726.337L88.0212 770.321L105.43 778.512L98.4502 725.749L82.2568 726.337Z" fill="#D43464"/>
<path d="M129.671 740.703L87.2067 770.188L105.55 779.524L143.272 751.403L129.671 740.703Z" fill="#D43464"/>
<path d="M136.471 746.053L121.668 781.195L136.364 788.169L148.939 755.861L136.471 746.053Z" fill="#D43464"/>
<path d="M332.168 591.755L310.014 595.426L338.915 618.163L353.136 608.25L332.168 591.755Z" fill="#D43464"/>
<path d="M310.014 595.426L315.778 639.41L333.187 647.601L326.207 594.838L310.014 595.426Z" fill="#D43464"/>
<path d="M357.428 609.792L314.964 639.278L333.307 648.613L371.029 620.492L357.428 609.792Z" fill="#D43464"/>
<path d="M364.229 615.142L349.425 650.284L364.122 657.259L376.696 624.95L364.229 615.142Z" fill="#D43464"/>
<path d="M434.739 692.086L411.405 722.247L398.11 712.873L420.071 686.047L434.739 692.086Z" fill="#D43464"/>
<path d="M236.617 763.004L241.104 785.008L209.541 766.139L213.718 749.314L236.617 763.004Z" fill="#D43464"/>
<path d="M241.104 785.008L197.964 795.34L184.093 782.007L235.867 769.673L241.104 785.008Z" fill="#D43464"/>
<path d="M210.745 745.857L198.379 796.054L183.105 782.257L195.891 736.977L210.745 745.857Z" fill="#D43464"/>
<path d="M203.318 741.417L175.785 767.8L164.02 756.566L189.702 733.277L203.318 741.417Z" fill="#D43464"/>
<path d="M234.768 681.83L239.917 659.972L260.665 690.333L249.82 703.856L234.768 681.83Z" fill="#D43464"/>
<path d="M239.917 659.971L283.416 668.673L290.421 686.592L238.244 676.089L239.917 659.971Z" fill="#D43464"/>
<path d="M251.071 708.242L283.338 667.851L291.423 686.779L260.835 722.53L251.071 708.242Z" fill="#D43464"/>
<path d="M255.953 715.387L292.009 702.973L297.982 718.104L264.902 728.484L255.953 715.387Z" fill="#D43464"/>
<path d="M279.793 539.329L300.559 547.877L267.294 563.551L255.659 550.701L279.793 539.329Z" fill="#D43464"/>
<path d="M300.559 547.876L285.075 589.447L266.272 593.524L284.91 543.671L300.559 547.876Z" fill="#D43464"/>
<path d="M251.131 551.241L285.899 589.5L265.929 594.484L235.476 558.618L251.131 551.241Z" fill="#D43464"/>
<path d="M243.303 554.929L249.847 592.497L233.961 595.997L228.954 561.691L243.303 554.929Z" fill="#D43464"/>
<path d="M257.701 513.539L266.937 534.009L231.986 522.577L232.345 505.246L257.701 513.539Z" fill="#D43464"/>
<path d="M266.937 534.009L227.144 553.614L210.671 543.674L258.442 520.21L266.937 534.009Z" fill="#D43464"/>
<path d="M228.681 502.53L227.707 554.218L209.763 544.136L212.232 497.151L228.681 502.53Z" fill="#D43464"/>
<path d="M220.456 499.84L199.431 531.653L185.475 523.294L205.379 494.908L220.456 499.84Z" fill="#D43464"/>
<path d="M147.313 397.4L167.061 408.091L132.328 420.168L122.114 406.162L147.313 397.4Z" fill="#D43464"/>
<path d="M167.061 408.091L147.277 447.795L128.149 449.866L151.943 402.258L167.061 408.091Z" fill="#D43464"/>
<path d="M117.554 406.221L148.091 447.936L127.707 450.784L101.208 411.905L117.554 406.221Z" fill="#D43464"/>
<path d="M109.381 409.063L111.924 447.111L95.757 448.915L94.3978 414.272L109.381 409.063Z" fill="#D43464"/>
<path d="M382.824 476.982L381.79 499.415L410.059 475.896L403.332 459.92L382.824 476.982Z" fill="#D43464"/>
<path d="M381.789 499.415L426.008 502.959L437.652 487.643L384.594 483.455L381.789 499.415Z" fill="#D43464"/>
<path d="M405.736 456.044L425.708 503.728L438.668 487.737L419.04 444.976L405.736 456.044Z" fill="#D43464"/>
</g>
<defs>
<clipPath id="clip0_82_9182">
<rect x="590.859" y="0.859863" width="836" height="836" rx="418" transform="rotate(44.8894 590.859 0.859863)" fill="white"/>
</clipPath>
</defs>
</svg>
