<svg width="45" height="26" viewBox="0 0 45 26" fill="none" xmlns="http://www.w3.org/2000/svg">
<style>
		.upleaf {
			animation: leaf_opacity 0.1ms alternate infinite;
		}

		@keyframes leaf_opacity{
			from{
				stroke-opacity: 0;
			}to{
				stroke-opacity: 1;
			}
		}

		.downleaf {
			animation: leaf_opacity 0.1ms alternate infinite;
		}
	</style>
<path d="M7.20508 18.2099V8.82338V7.88477H4.20139C3.82593 7.88477 3.11255 8.18513 3.26274 9.38661C3.32404 9.87705 3.34572 11.0307 3.34566 12.3903C2.62967 12.3277 1.16015 12.4654 1.00997 13.5167C0.927474 14.0941 1.38291 14.4337 1.94862 14.6225C2.41282 14.7774 2.95126 14.8308 3.32767 14.8308C3.31092 16.1032 3.28521 17.3334 3.26274 18.2099C3.26274 18.5854 3.45047 18.9609 4.20139 18.9609H7.20508V18.2099Z" fill="#F36356"/>
<path d="M3.34566 12.3903C3.34572 11.0307 3.32404 9.87705 3.26274 9.38661C3.11255 8.18513 3.82593 7.88477 4.20139 7.88477H7.20508V8.82338V18.2099V18.9609H4.20139C3.45047 18.9609 3.26274 18.5854 3.26274 18.2099C3.28521 17.3334 3.31092 16.1032 3.32767 14.8308M3.34566 12.3903C2.62967 12.3277 1.16015 12.4654 1.00997 13.5167C0.927474 14.0941 1.38291 14.4337 1.94862 14.6225C2.41282 14.7774 2.95126 14.8308 3.32767 14.8308M3.34566 12.3903C3.34562 13.1651 3.33853 14.0068 3.32767 14.8308" stroke="#D43464" stroke-width="0.5" stroke-linecap="round" stroke-linejoin="round"/>
<path d="M4.20139 19.1485C3.45047 19.1485 3.26273 18.773 3.26273 18.3975C3.27846 17.7842 3.29577 16.9977 3.31049 16.1448H7.20508V18.3975V19.1485H4.20139Z" fill="#D43464" stroke="#D43464" stroke-width="0.5" stroke-linecap="round" stroke-linejoin="round"/>
<path d="M37.6172 9.99293L15.2772 9.05428C13.9472 9.9611 12.8159 10.29 11.8981 10.298C10.5358 10.3099 9.64371 9.61508 9.26984 9.05428H7.2048V18.4408H19.4073C25.4147 17.8401 38.3055 14.1856 44 12.4335V7.55243C44 4.54878 39.3693 8.05305 37.6172 9.99293Z" fill="#F36356" stroke="#D43464" stroke-width="0.5" stroke-linecap="round" stroke-linejoin="round"/>
<path d="M7.21917 18.651L19.4209 18.5178C22.3761 18.1897 26.9926 17.1027 31.5952 15.8672L7.19169 16.1336L7.21917 18.651Z" fill="#D43464"/>
<path d="M20.0699 2.66389C20.642 2.6172 20.6574 1.78494 20.0874 1.71722L7.52948 0.225162C6.5117 0.104234 5.60986 0.883535 5.58192 1.9081V1.9081C5.55364 2.94495 6.4318 3.77679 7.46561 3.69243L20.0699 2.66389Z" fill="#F36356"/>
<path d="M15.4602 3.06409L7.23326 3.73543C6.45354 3.79906 5.76925 3.21999 5.70301 2.44048L15.4602 3.06409Z" fill="#D43464"/>
<path d="M15.0894 17.4587L10.9593 21.5888M9.26971 17.4587V20.8379" stroke="#D43464" stroke-width="0.5" stroke-linecap="round" stroke-linejoin="round"/>
<path d="M15.2772 9.01105L37.6172 9.9497C39.3693 8.00982 44 4.50555 44 7.5092V12.3902C38.3055 14.1424 25.4147 17.7969 19.4073 18.3976H7.2048M15.2772 9.01105C13.9472 9.91787 12.8159 10.2467 11.8981 10.2547M15.2772 9.01105V10.5129M15.2772 9.01105L13.7754 3.56689L11.8981 10.2547M7.2048 18.3976V9.01105M7.2048 18.3976V19.1485H4.20111C3.45019 19.1485 3.26246 18.7731 3.26246 18.3976C3.28493 17.521 3.31064 16.2908 3.3274 15.0185M7.2048 9.01105H9.26984C9.64371 9.57184 10.5358 10.2667 11.8981 10.2547M7.2048 9.01105V8.07243H4.20111C3.82565 8.07243 3.11227 8.3728 3.26246 9.57427C3.32376 10.0647 3.34545 11.2183 3.34538 12.578M3.34538 12.578C2.6294 12.5154 1.15987 12.6531 1.00969 13.7043C0.927195 14.2818 1.38263 14.6214 1.94834 14.8102C2.41254 14.9651 2.95098 15.0185 3.3274 15.0185M3.34538 12.578C3.34535 13.3528 3.33825 14.1945 3.3274 15.0185M11.8981 10.2547V11.4516M11.8981 10.2547L9.26984 3.56689" stroke="#D43464" stroke-width="0.5" stroke-linecap="round" stroke-linejoin="round"/>
<path d="M19.9178 2.12832L7.35985 0.636257C6.48808 0.532679 5.71562 1.20018 5.69169 2.07775C5.66747 2.96586 6.41965 3.67836 7.30514 3.6061L19.9095 2.57756C20.181 2.5554 20.1882 2.16045 19.9178 2.12832Z" stroke="#D43464" stroke-width="0.5"/>
<circle r="2.1905" transform="matrix(-1 0 0 1 9.26995 23.0906)" fill="#F36356" stroke="#D43464" stroke-width="0.5"/>
<circle r="0.688653" transform="matrix(-1 0 0 1 9.26984 23.0908)" fill="#F36356" stroke="#D43464" stroke-width="0.5"/>
<line class="upleaf" x1="0.25" y1="-0.25" x2="5.29839" y2="-0.25" transform="matrix(0 -1 -1 0 1.69336 12.4839)" stroke="#D43464" stroke-width="0.5" stroke-linecap="round"/>
<line class="downleaf" x1="0.25" y1="-0.25" x2="5.29839" y2="-0.25" transform="matrix(0 -1 -1 0 1.69336 20.1128)" stroke="#D43464" stroke-width="0.5" stroke-linecap="round"/>
</svg>
