<svg width="48" height="29" viewBox="0 0 48 29" fill="none" xmlns="http://www.w3.org/2000/svg">
<path d="M7.63818 9.18481C7.77625 9.18481 7.88818 9.29674 7.88818 9.43481V10.4389V20.4804V21.2837C7.88818 21.4217 7.77625 21.5337 7.63818 21.5337H4.42493C3.98474 21.5337 3.65889 21.4235 3.44484 21.2094C3.2308 20.9954 3.17079 20.7197 3.17079 20.4804H3.17071L3.17088 20.474C3.19344 19.5939 3.21906 18.3802 3.23693 17.1089C2.84655 17.0893 2.36646 17.0235 1.93586 16.8798C1.61469 16.7726 1.29887 16.6148 1.07295 16.3806C0.837961 16.137 0.70737 15.8163 0.763369 15.4243C0.863126 14.726 1.40474 14.3557 1.95439 14.1731C2.39293 14.0274 2.87597 13.9851 3.25925 13.9918C3.25656 12.6496 3.23211 11.5475 3.17272 11.0724C3.08583 10.3773 3.24492 9.8957 3.52771 9.58721C3.80399 9.2858 4.16685 9.18481 4.42493 9.18481H7.63818Z" fill="#F36356" stroke="#D43464" stroke-width="0.5" stroke-linecap="round" stroke-linejoin="round"/>
<path d="M3.17079 20.6812H3.17071L3.17088 20.6748C3.18768 20.0193 3.20618 19.1787 3.22191 18.2669C3.22427 18.1306 3.33549 18.0212 3.47188 18.0212H7.63818C7.77625 18.0212 7.88818 18.1332 7.88818 18.2712V20.6812V21.4845C7.88818 21.6226 7.77625 21.7345 7.63818 21.7345H4.42493C3.98474 21.7345 3.65889 21.6243 3.44484 21.4102C3.2308 21.1962 3.17079 20.9205 3.17079 20.6812Z" fill="#D43464" stroke="#D43464" stroke-width="0.5" stroke-linecap="round" stroke-linejoin="round"/>
<path d="M16.1325 10.4794C16.1769 10.4491 16.23 10.4339 16.2838 10.4362L40.0659 11.4354C41.0324 10.3886 42.7081 8.97068 44.1701 8.18157C44.5474 7.97788 44.9166 7.81274 45.2604 7.70719C45.6017 7.60239 45.9339 7.55133 46.2308 7.59221C46.5362 7.63427 46.8042 7.77461 46.989 8.04157C47.1679 8.29997 47.25 8.64992 47.25 9.07935V14.3009C47.25 14.4107 47.1784 14.5076 47.0735 14.5399C40.9874 16.4125 27.1724 20.3306 20.7164 20.9762C20.7081 20.977 20.6998 20.9774 20.6915 20.9774H7.6377C7.49962 20.9774 7.3877 20.8655 7.3877 20.7274V10.686C7.3877 10.5479 7.49962 10.436 7.6377 10.436H9.8468C9.93039 10.436 10.0084 10.4777 10.0548 10.5473C10.4115 11.0823 11.2894 11.7784 12.6562 11.7665C13.5781 11.7584 14.7409 11.4282 16.1325 10.4794Z" fill="#F36356" stroke="#D43464" stroke-width="0.5" stroke-linecap="round" stroke-linejoin="round"/>
<path d="M7.65328 20.9522L20.7063 20.8097C23.8677 20.4586 28.8063 19.2958 33.73 17.9741L7.62388 18.2591L7.65328 20.9522Z" fill="#D43464"/>
<path d="M21.4004 3.84971C22.0124 3.79977 22.0288 2.90945 21.4191 2.837L7.98502 1.24085C6.89623 1.11148 5.93147 1.94515 5.90159 3.0412C5.87134 4.15039 6.81077 5.04027 7.9167 4.95002L21.4004 3.84971Z" fill="#F36356"/>
<path d="M16.4691 4.27805L7.66812 4.99623C6.834 5.0643 6.10196 4.44483 6.03111 3.61093L16.4691 4.27805Z" fill="#D43464"/>
<path d="M16.0723 19.6768L11.654 24.095M9.84659 19.6768V23.2917" stroke="#D43464" stroke-width="0.5" stroke-linecap="round" stroke-linejoin="round"/>
<path d="M3.23643 17.3096C2.84607 17.29 2.36597 17.2242 1.93537 17.0805C1.6142 16.9733 1.29838 16.8156 1.07246 16.5813C0.837471 16.3377 0.706882 16.017 0.762882 15.625C0.862637 14.9267 1.40425 14.5564 1.9539 14.3738C2.39244 14.2281 2.87548 14.1858 3.25876 14.1925C3.25607 12.8503 3.23162 11.7483 3.17223 11.2732C3.08534 10.578 3.24443 10.0964 3.52722 9.78794C3.8035 9.48654 4.16637 9.38555 4.42445 9.38555H7.6377C7.77577 9.38555 7.8877 9.49748 7.8877 9.63555V10.3897H9.8468C9.93039 10.3897 10.0084 10.4314 10.0548 10.501C10.395 11.0112 11.2093 11.668 12.4697 11.7173L14.426 4.74811C14.4563 4.64003 14.555 4.56542 14.6672 4.56567C14.7795 4.56593 14.8778 4.64097 14.9077 4.74919L16.4658 10.3975L40.0659 11.3891C41.0324 10.3423 42.7081 8.92436 44.1701 8.13525C44.5474 7.93156 44.9166 7.76642 45.2604 7.66087C45.6017 7.55607 45.9339 7.50501 46.2308 7.54589C46.5362 7.58795 46.8042 7.72829 46.989 7.99525C47.1679 8.25364 47.25 8.6036 47.25 9.03303V14.2546C47.25 14.3643 47.1784 14.4613 47.0735 14.4935C40.9874 16.3662 27.1724 20.2843 20.7164 20.9299C20.7081 20.9307 20.6998 20.9311 20.6915 20.9311H7.8877V21.4844C7.8877 21.6225 7.77577 21.7344 7.6377 21.7344H4.42445C3.98425 21.7344 3.6584 21.6242 3.44436 21.4101C3.23031 21.1961 3.1703 20.9205 3.1703 20.6811H3.17022L3.17039 20.6747C3.19295 19.7947 3.21857 18.5809 3.23643 17.3096Z" stroke="#D43464" stroke-width="0.5" stroke-linecap="round" stroke-linejoin="round"/>
<path d="M21.2987 2.76307C22.2079 2.8711 22.1835 4.19873 21.2708 4.2732L7.78713 5.37351C6.53289 5.47586 5.46747 4.46664 5.50178 3.2087C5.53567 1.96567 6.62981 1.0202 7.86462 1.16691L21.2987 2.76307Z" stroke="#D43464" stroke-width="0.5"/>
<circle r="2.86077" transform="matrix(-1 0 0 1 9.84675 25.7016)" fill="#F36356" stroke="#D43464" stroke-width="0.5"/>
<circle r="1.25414" transform="matrix(-1 0 0 1 9.84693 25.7017)" fill="#F36356" stroke="#D43464" stroke-width="0.5"/>
</svg>
