<svg width="64" height="37" viewBox="0 0 64 37" fill="none" xmlns="http://www.w3.org/2000/svg">
<path d="M54.0532 26.2561V12.722V11.3687H58.3841C58.9255 11.3687 59.9541 11.8017 59.7375 13.5341C59.6491 14.2413 59.6179 15.9046 59.618 17.865C60.6503 17.7748 62.7692 17.9733 62.9857 19.4891C63.1047 20.3217 62.448 20.8113 61.6323 21.0835C60.963 21.3069 60.1866 21.3839 59.6439 21.3839C59.6681 23.2184 59.7051 24.9922 59.7375 26.2561C59.7375 26.7975 59.4668 27.3389 58.3841 27.3389H54.0532V26.2561Z" fill="#F36356"/>
<path d="M59.618 17.865C59.6179 15.9046 59.6491 14.2413 59.7375 13.5341C59.9541 11.8017 58.9255 11.3687 58.3841 11.3687H54.0532V12.722V26.2561V27.3389H58.3841C59.4668 27.3389 59.7375 26.7975 59.7375 26.2561C59.7051 24.9922 59.6681 23.2184 59.6439 21.3839M59.618 17.865C60.6503 17.7748 62.7692 17.9733 62.9857 19.4891C63.1047 20.3217 62.448 20.8113 61.6323 21.0835C60.963 21.3069 60.1866 21.3839 59.6439 21.3839M59.618 17.865C59.618 18.9821 59.6283 20.1958 59.6439 21.3839" stroke="#D43464" stroke-width="1.5" stroke-linecap="round" stroke-linejoin="round"/>
<path d="M58.3841 27.6095C59.4668 27.6095 59.7375 27.0681 59.7375 26.5267C59.7149 25.6424 59.6899 24.5084 59.6687 23.2786H54.0532V26.5267V27.6095H58.3841Z" fill="#D43464" stroke="#D43464" stroke-width="1.5" stroke-linecap="round" stroke-linejoin="round"/>
<path d="M10.2032 14.4084L42.4142 13.055C44.332 14.3625 45.9631 14.8367 47.2865 14.8482C49.2507 14.8654 50.537 13.8636 51.076 13.055H54.0535V26.5891H36.4593C27.7975 25.7229 9.21067 20.4537 1 17.9273V10.8896C1 6.5587 7.67681 11.6114 10.2032 14.4084Z" fill="#F36356" stroke="#D43464" stroke-width="1.5" stroke-linecap="round" stroke-linejoin="round"/>
<path d="M54.0326 26.892L36.4394 26.7C32.1784 26.2269 25.5221 24.6596 18.8857 22.8782L54.0722 23.2623L54.0326 26.892Z" fill="#D43464"/>
<path d="M35.5043 3.84113C34.6794 3.77382 34.6573 2.57382 35.4791 2.47617L53.5859 0.324833C55.0534 0.150473 56.3537 1.27412 56.394 2.75139C56.4348 4.24639 55.1686 5.44579 53.678 5.32415L35.5043 3.84113Z" fill="#F36356"/>
<path d="M42.1507 4.4182L54.0128 5.38618C55.1371 5.47792 56.1237 4.64299 56.2192 3.51904L42.1507 4.4182Z" fill="#D43464"/>
<path d="M42.6851 25.1731L48.64 31.1281M51.0762 25.1731V30.0454" stroke="#D43464" stroke-width="1.5" stroke-linecap="round" stroke-linejoin="round"/>
<path d="M42.4142 12.9925L10.2032 14.3459C7.67681 11.5489 1 6.49623 1 10.8271V17.8648C9.21067 20.3912 27.7975 25.6605 36.4593 26.5266H54.0535M42.4142 12.9925C44.332 14.3 45.9631 14.7742 47.2865 14.7858M42.4142 12.9925V15.158M42.4142 12.9925L44.5797 5.14282L47.2865 14.7858M54.0535 26.5266V12.9925M54.0535 26.5266V27.6094H58.3844C59.4672 27.6094 59.7379 27.068 59.7379 26.5266C59.7054 25.2627 59.6684 23.489 59.6442 21.6544M54.0535 12.9925H51.0761C50.537 13.8011 49.2507 14.803 47.2865 14.7858M54.0535 12.9925V11.6392H58.3844C58.9258 11.6392 59.9544 12.0723 59.7379 13.8046C59.6495 14.5118 59.6182 16.1751 59.6183 18.1355M59.6183 18.1355C60.6506 18.0453 62.7695 18.2438 62.986 19.7596C63.105 20.5922 62.4483 21.0818 61.6326 21.354M59.6183 18.1355C59.6183 19.2527 59.6286 20.4663 59.6442 21.6544M59.6442 21.6544C60.187 21.6544 60.9633 21.5774 61.6326 21.354M61.6326 18.1355V12.1805M61.6326 21.354V27.8801M47.2865 14.7858V16.5114M47.2865 14.7858L51.0761 5.14282" stroke="#D43464" stroke-width="1.5" stroke-linecap="round" stroke-linejoin="round"/>
<path d="M53.9406 4.81126L36.4036 3.38019L53.876 1.30421C54.9055 1.1819 55.8177 1.97014 55.8459 3.00645C55.8745 4.0552 54.9863 4.89659 53.9406 4.81126Z" stroke="#D43464" stroke-width="1.5"/>
<circle cx="51.076" cy="33.2935" r="2.76886" fill="#F36356" stroke="#D43464" stroke-width="1.5"/>
<circle cx="51.0761" cy="33.2936" r="0.75" fill="#F36356" stroke="#D43464" stroke-width="1.20681"/>
</svg>
