<svg width="137" height="62" viewBox="0 0 137 62" fill="none" xmlns="http://www.w3.org/2000/svg">
<rect x="1.5" y="1.5" width="134" height="59" rx="8.5" fill="#2C2B29"/>
<path d="M24.5583 14.9059H30.4279V47.0941H24.5583V14.9059Z" fill="#FF954C"/>
<path d="M34.0658 33.2721C39.0629 33.2721 43.1138 29.1607 43.1138 24.089C43.1138 19.0173 39.0629 14.9059 34.0658 14.9059H30.4279V20.5862H33.9725C35.9301 20.5862 37.5171 22.1968 37.5171 24.1837C37.5171 26.1705 35.9301 27.7812 33.9725 27.7812H30.4279V33.2721H34.0658Z" fill="#FF954C"/>
<path d="M21.9075 14.9059H24.5583V20.5862H21.9075V14.9059Z" fill="#FF954C"/>
<rect x="24.5583" y="27.7812" width="5.86961" height="6.43764" fill="#F36356"/>
<rect x="24.5583" y="34.2189" width="5.86961" height="6.43764" fill="#D43464"/>
<rect x="24.5583" y="40.6564" width="5.86961" height="6.43764" fill="#A60D72"/>
<rect x="28.5344" y="26.4558" width="1.3254" height="1.3254" fill="#F36356"/>
<rect x="24.5583" y="24.7516" width="1.3254" height="1.3254" fill="#F36356"/>
<rect x="24.5583" y="28.3493" width="1.3254" height="1.3254" fill="#D43464"/>
<rect x="28.5344" y="32.3254" width="1.3254" height="1.3254" fill="#D43464"/>
<rect x="29.1025" y="40.8459" width="1.3254" height="1.3254" fill="#D43464"/>
<rect x="29.1025" y="44.822" width="1.3254" height="1.3254" fill="#F36356"/>
<rect x="25.1262" y="42.3605" width="1.3254" height="1.3254" fill="#F36356"/>
<rect x="24.5583" y="35.7336" width="1.3254" height="1.3254" fill="#F36356"/>
<rect x="29.1025" y="34.5975" width="1.3254" height="1.3254" fill="#F36356"/>
<path d="M46.1138 44.7143V41.9819L57.0956 44.3617V47.0941L46.1138 44.7143Z" fill="#A60D72"/>
<path d="M46.1138 33.3538V30.6214L57.0956 33.0012V35.7336L46.1138 33.3538Z" fill="#F36356"/>
<path d="M46.1138 38.8447V36.1123L57.0956 38.4921V41.2245L46.1138 38.8447Z" fill="#D43464"/>
<path d="M57.0956 38.4921V41.2245L68.0775 38.8447V36.1123L57.0956 38.4921Z" fill="#D43464" fill-opacity="0.75"/>
<path d="M57.0956 33.0012V35.7336L68.0775 33.3538V30.6214L57.0956 33.0012Z" fill="#F36356" fill-opacity="0.75"/>
<path d="M57.0956 44.3617V47.0941L68.0775 44.7143V41.9819L57.0956 44.3617Z" fill="#A60D72" fill-opacity="0.75"/>
<path d="M57.0956 32.988L46.1138 30.6213L57.0956 27.7811L68.0775 30.6213L57.0956 32.988Z" fill="#FFC751"/>
<path d="M71.0869 37.4038C71.0817 42.7209 75.3879 47.0354 80.7049 47.0405C83.7973 47.0435 86.5506 45.5882 88.3142 43.3238L84.2396 40.4011C83.391 41.4013 82.1243 42.0357 80.7098 42.0343C79.6608 42.0333 78.6938 41.6828 77.9188 41.0932C77.6086 40.8823 76.8125 39.7732 76.1093 37.0236C76.3073 34.6518 78.2962 32.7897 80.7187 32.792C81.6826 32.7929 82.5772 33.0889 83.3173 33.5944L90.0879 35.2079C89.0917 30.9572 85.2786 27.7902 80.7236 27.7858C75.4065 27.7806 71.092 32.0868 71.0869 37.4038Z" fill="#D43464"/>
<path d="M73.2917 43.5607C72.1376 42.3273 71.4633 40.2297 71.3036 39.3952L88.0371 31.2588C89.1914 32.2611 89.9275 34.3734 90.1512 35.3043L73.2917 43.5607Z" fill="#F36356"/>
<path d="M80.7448 47.0867C83.8372 47.0897 86.5905 45.6344 88.3541 43.3701L84.2795 40.4473C83.4309 41.4476 82.1642 42.0819 80.7497 42.0805C79.7007 42.0795 78.7337 41.729 77.9587 41.1394L73.2002 43.4286C74.9616 45.6545 77.6859 47.0838 80.7448 47.0867Z" fill="#A60D72"/>
<rect x="76.4207" y="38.5835" width="1.3254" height="1.3254" transform="rotate(15 76.4207 38.5835)" fill="#D43464"/>
<rect x="78.7292" y="43.9808" width="1.3254" height="1.3254" transform="rotate(30 78.7292 43.9808)" fill="#D43464"/>
<rect x="82.8003" y="31.5789" width="1.3254" height="1.3254" transform="rotate(-30 82.8003 31.5789)" fill="#F36356"/>
<rect x="72.5757" y="37.6378" width="1.3254" height="1.3254" transform="rotate(-30 72.5757 37.6378)" fill="#F36356"/>
<path d="M93.1584 27.7812H99.0281V47.0941H93.1584V27.7812Z" fill="#FF954C"/>
<path d="M101.111 32.9881C100.126 32.9124 99.3121 33.9033 99.0281 34.4082V29.0119C99.2805 28.6332 100.221 27.8759 101.963 27.8759C103.705 27.8759 105.529 29.6431 106.223 30.5267L102.91 33.8401C102.72 33.5877 102.095 33.0638 101.111 32.9881Z" fill="#FF954C"/>
<rect x="93.1584" y="32.7042" width="1.3254" height="1.3254" fill="#D43464"/>
<rect x="93.1584" y="34.4082" width="5.86961" height="6.34297" fill="#D43464"/>
<rect x="93.1584" y="40.7511" width="5.86961" height="6.34297" fill="#A60D72"/>
<rect x="93.7263" y="45.2007" width="1.3254" height="1.3254" fill="#D43464"/>
<rect x="95.4304" y="34.4083" width="1.3254" height="1.3254" fill="#F36356"/>
<rect x="93.5371" y="39.3311" width="1.3254" height="1.3254" fill="#F36356"/>
<rect x="96.3772" y="41.2245" width="1.3254" height="1.3254" fill="#F36356"/>
<rect x="109.223" y="14.9059" width="5.86961" height="32.1882" fill="#FF954C"/>
<rect x="109.223" y="26.8344" width="5.86961" height="7.38435" fill="#F36356"/>
<rect x="109.223" y="34.2189" width="5.86961" height="6.43764" fill="#D43464"/>
<rect x="109.223" y="40.6565" width="5.86961" height="6.43764" fill="#A60D72"/>
<rect x="111.684" y="25.5091" width="1.3254" height="1.3254" fill="#F36356"/>
<rect x="110.169" y="31.5681" width="1.3254" height="1.3254" fill="#D43464"/>
<rect x="109.223" y="22.6689" width="1.3254" height="1.3254" fill="#F36356"/>
<rect x="113.01" y="34.9762" width="1.3254" height="1.3254" fill="#F36356"/>
<rect x="111.495" y="41.2245" width="1.3254" height="1.3254" fill="#F36356"/>
<rect x="1.5" y="1.5" width="134" height="59" rx="8.5" stroke="#F36356" stroke-width="3"/>
</svg>
