<svg width="153" height="58" viewBox="0 0 153 58" fill="none" xmlns="http://www.w3.org/2000/svg">
<path d="M4.53318 0.712891H14.5709V55.7587H4.53318V0.712891Z" fill="#FF954C"/>
<path d="M20.7922 32.1214C29.3378 32.1214 36.2655 25.0904 36.2655 16.4171C36.2655 7.74392 29.3378 0.712891 20.7922 0.712891H14.5709V10.4269H20.6326C23.9804 10.4269 26.6944 13.1813 26.6944 16.579C26.6944 19.9768 23.9804 22.7312 20.6326 22.7312H14.5709V32.1214H20.7922Z" fill="#FF954C"/>
<path d="M0 0.712891H4.53318V10.4269H0V0.712891Z" fill="#FF954C"/>
<rect x="4.53271" y="22.7319" width="10.0378" height="11.0092" fill="#F36356"/>
<rect x="4.5332" y="33.7405" width="10.0378" height="11.0092" fill="#D43464"/>
<rect x="4.5332" y="44.749" width="10.0378" height="11.0092" fill="#A60D72"/>
<rect x="11.333" y="20.4644" width="2.26659" height="2.26659" fill="#F36356"/>
<rect x="4.5332" y="17.5498" width="2.26659" height="2.26659" fill="#F36356"/>
<rect x="4.81152" y="25.1172" width="2.26659" height="2.26659" fill="#D43464"/>
<rect x="11.333" y="30.5029" width="2.26659" height="2.26659" fill="#D43464"/>
<rect x="12.3042" y="45.0732" width="2.26659" height="2.26659" fill="#D43464"/>
<rect x="13.0615" y="55.0205" width="2.26659" height="2.26659" fill="#F36356"/>
<rect x="5.50439" y="47.6633" width="2.26659" height="2.26659" fill="#F36356"/>
<rect x="4.5332" y="36.3306" width="2.26659" height="2.26659" fill="#F36356"/>
<rect x="12.3042" y="34.3877" width="2.26659" height="2.26659" fill="#F36356"/>
<path d="M39.8066 53.2174V48.5446L58.587 52.6145V57.2872L39.8066 53.2174Z" fill="#A60D72"/>
<path d="M39.8066 33.7895V29.1167L58.587 33.1865V37.8593L39.8066 33.7895Z" fill="#F36356"/>
<path d="M39.8066 43.1796V38.5069L58.587 42.5767V47.2494L39.8066 43.1796Z" fill="#D43464"/>
<path d="M58.587 42.5767V47.2494L77.3673 43.1796V38.5069L58.587 42.5767Z" fill="#D43464" fill-opacity="0.75"/>
<path d="M58.587 33.1865V37.8593L77.3673 33.7895V29.1167L58.587 33.1865Z" fill="#F36356" fill-opacity="0.75"/>
<path d="M58.587 52.6145V57.2872L77.3673 53.2174V48.5446L58.587 52.6145Z" fill="#A60D72" fill-opacity="0.75"/>
<path d="M58.587 33.1642L39.8066 29.1167L58.587 24.2598L77.3673 29.1167L58.587 33.1642Z" fill="#FFC751"/>
<path d="M80.9235 40.716C80.9147 49.8088 88.2788 57.1871 97.3716 57.1959C102.66 57.201 107.368 54.7122 110.384 50.8399L103.416 45.8416C101.965 47.5522 99.7989 48.637 97.3799 48.6346C95.586 48.6329 93.9323 48.0336 92.6069 47.0252C92.0765 46.6646 90.715 44.7679 89.5125 40.0657C89.8511 36.0096 93.2524 32.8252 97.3952 32.8292C99.0435 32.8308 100.573 33.3369 101.839 34.2013L113.418 36.9607C111.714 29.6915 105.193 24.2754 97.4035 24.2679C88.3106 24.2591 80.9323 31.6231 80.9235 40.716Z" fill="#D43464"/>
<path d="M84.6935 51.2448C82.7199 49.1355 81.5667 45.5484 81.2936 44.1212L109.91 30.2069C111.884 31.921 113.143 35.5334 113.525 37.1253L84.6935 51.2448Z" fill="#F36356"/>
<path d="M97.4407 57.2745C102.729 57.2796 107.437 54.7909 110.453 50.9185L103.486 45.9202C102.034 47.6308 99.868 48.7156 97.449 48.7132C95.6551 48.7115 94.0014 48.1122 92.676 47.1038L84.5385 51.0187C87.5506 54.8252 92.2096 57.2695 97.4407 57.2745Z" fill="#A60D72"/>
<rect x="90.0449" y="42.7329" width="2.26659" height="2.26659" transform="rotate(15 90.0449 42.7329)" fill="#D43464"/>
<rect x="93.9937" y="51.9629" width="2.26659" height="2.26659" transform="rotate(30 93.9937 51.9629)" fill="#D43464"/>
<rect x="100.955" y="30.7544" width="2.26659" height="2.26659" transform="rotate(-30 100.955 30.7544)" fill="#F36356"/>
<rect x="83.4697" y="41.1152" width="2.26659" height="2.26659" transform="rotate(-30 83.4697 41.1152)" fill="#F36356"/>
<path d="M117.079 24.2588H127.117V57.2863H117.079V24.2588Z" fill="#FF954C"/>
<path d="M130.679 33.1633C128.995 33.0337 127.603 34.7283 127.117 35.5918V26.3635C127.549 25.7159 129.157 24.4207 132.136 24.4207C135.115 24.4207 138.234 27.4428 139.421 28.9539L133.755 34.6204C133.431 34.1886 132.362 33.2928 130.679 33.1633Z" fill="#FF954C"/>
<rect x="117.079" y="32.6763" width="2.26659" height="2.26659" fill="#D43464"/>
<rect x="117.079" y="35.5908" width="10.0378" height="10.8473" fill="#D43464"/>
<rect x="117.079" y="46.4392" width="10.0378" height="10.8473" fill="#A60D72"/>
<rect x="118.051" y="54.0479" width="2.26659" height="2.26659" fill="#D43464"/>
<rect x="120.965" y="35.5908" width="2.26659" height="2.26659" fill="#F36356"/>
<rect x="117.726" y="44.0107" width="2.26659" height="2.26659" fill="#F36356"/>
<rect x="122.921" y="48.6619" width="2.26659" height="2.26659" fill="#F36356"/>
<rect x="142.962" y="2.24121" width="10.0378" height="55.0458" fill="#FF954C"/>
<rect x="142.962" y="22.6406" width="10.0378" height="12.6282" fill="#F36356"/>
<rect x="142.962" y="35.2688" width="10.0378" height="11.0092" fill="#D43464"/>
<rect x="142.962" y="46.2778" width="10.0378" height="11.0092" fill="#A60D72"/>
<rect x="147.171" y="20.374" width="2.26659" height="2.26659" fill="#F36356"/>
<rect x="144.581" y="30.7358" width="2.26659" height="2.26659" fill="#D43464"/>
<rect x="142.962" y="15.5171" width="2.26659" height="2.26659" fill="#F36356"/>
<rect x="149.438" y="36.5645" width="2.26659" height="2.26659" fill="#F36356"/>
<rect x="147.086" y="50.0183" width="2.26659" height="2.26659" fill="#F36356"/>
</svg>
