<svg width="32" height="32" viewBox="0 0 32 32" fill="none" xmlns="http://www.w3.org/2000/svg">
<path d="M28.0003 7.99996C27.6467 7.99996 27.3076 8.14044 27.0575 8.39048C26.8075 8.64053 26.667 8.97967 26.667 9.33329V22.6666C26.667 23.7275 26.2456 24.7449 25.4954 25.4951C24.7453 26.2452 23.7279 26.6666 22.667 26.6666H9.33366C8.98004 26.6666 8.6409 26.8071 8.39085 27.0571C8.1408 27.3072 8.00033 27.6463 8.00033 28C8.00033 28.3536 8.1408 28.6927 8.39085 28.9428C8.6409 29.1928 8.98004 29.3333 9.33366 29.3333H22.667C24.4351 29.3333 26.1308 28.6309 27.381 27.3807C28.6313 26.1304 29.3337 24.4347 29.3337 22.6666V9.33329C29.3337 8.97967 29.1932 8.64053 28.9431 8.39048C28.6931 8.14044 28.3539 7.99996 28.0003 7.99996ZM24.0003 20V6.66663C24.0003 5.60576 23.5789 4.58834 22.8288 3.8382C22.0786 3.08805 21.0612 2.66663 20.0003 2.66663H6.66699C5.60613 2.66663 4.58871 3.08805 3.83857 3.8382C3.08842 4.58834 2.66699 5.60576 2.66699 6.66663V20C2.66699 21.0608 3.08842 22.0782 3.83857 22.8284C4.58871 23.5785 5.60613 24 6.66699 24H20.0003C21.0612 24 22.0786 23.5785 22.8288 22.8284C23.5789 22.0782 24.0003 21.0608 24.0003 20ZM13.3337 5.33329H16.0003V11.8133L15.5203 11.4133C15.2807 11.2137 14.9788 11.1045 14.667 11.1045C14.3552 11.1045 14.0532 11.2137 13.8137 11.4133L13.3337 11.8133V5.33329ZM5.33366 20V6.66663C5.33366 6.313 5.47413 5.97387 5.72418 5.72382C5.97423 5.47377 6.31337 5.33329 6.66699 5.33329H10.667V14.6666C10.667 14.9215 10.74 15.1711 10.8775 15.3857C11.0149 15.6004 11.211 15.7711 11.4425 15.8778C11.674 15.9844 11.9312 16.0224 12.1837 15.9874C12.4362 15.9523 12.6733 15.8456 12.867 15.68L14.667 14.1733L16.467 15.68C16.7085 15.8865 17.0159 16 17.3337 16C17.5266 15.9986 17.7171 15.9578 17.8937 15.88C18.1251 15.7729 18.321 15.6016 18.458 15.3866C18.5951 15.1715 18.6676 14.9216 18.667 14.6666V5.33329H20.0003C20.3539 5.33329 20.6931 5.47377 20.9431 5.72382C21.1932 5.97387 21.3337 6.313 21.3337 6.66663V20C21.3337 20.3536 21.1932 20.6927 20.9431 20.9428C20.6931 21.1928 20.3539 21.3333 20.0003 21.3333H6.66699C6.31337 21.3333 5.97423 21.1928 5.72418 20.9428C5.47413 20.6927 5.33366 20.3536 5.33366 20Z" fill="black"/>
</svg>
