<svg width="24" height="24" viewBox="0 0 24 24" fill="none" xmlns="http://www.w3.org/2000/svg">
<path d="M22 10C22.5304 10 23.0392 9.78929 23.4142 9.41421C23.7893 9.03914 24 8.53043 24 8V2C24 1.46957 23.7893 0.960859 23.4142 0.585786C23.0392 0.210714 22.5304 0 22 0H16C15.4696 0 14.9609 0.210714 14.5858 0.585786C14.2107 0.960859 14 1.46957 14 2V8C14 8.53043 14.2107 9.03914 14.5858 9.41421C14.9609 9.78929 15.4696 10 16 10H18V14.1C17.0391 14.296 16.1571 14.7702 15.4636 15.4636C14.7702 16.1571 14.296 17.0391 14.1 18H10V16C10 15.4696 9.7893 14.9609 9.41422 14.5858C9.03915 14.2107 8.53044 14 8.00001 14H6.00001V9.9C7.21405 9.65218 8.29284 8.96241 9.02721 7.96441C9.76158 6.96641 10.0992 5.73128 9.97469 4.49848C9.85015 3.26567 9.2723 2.12303 8.35316 1.29206C7.43403 0.461101 6.23909 0.00102043 5.00001 0.00102043C3.76093 0.00102043 2.56599 0.461101 1.64686 1.29206C0.727722 2.12303 0.149869 3.26567 0.0253305 4.49848C-0.0992078 5.73128 0.23844 6.96641 0.972814 7.96441C1.70719 8.96241 2.78597 9.65218 4.00001 9.9V14H2.00001C1.46958 14 0.960871 14.2107 0.585798 14.5858C0.210725 14.9609 1.14033e-05 15.4696 1.14033e-05 16V22C1.14033e-05 22.5304 0.210725 23.0391 0.585798 23.4142C0.960871 23.7893 1.46958 24 2.00001 24H8.00001C8.53044 24 9.03915 23.7893 9.41422 23.4142C9.7893 23.0391 10 22.5304 10 22V20H14.1C14.2809 20.8849 14.6981 21.7043 15.3073 22.3711C15.9165 23.038 16.6949 23.5273 17.5599 23.7872C18.4249 24.0471 19.3442 24.0679 20.22 23.8473C21.0959 23.6267 21.8956 23.1729 22.5343 22.5343C23.1729 21.8956 23.6267 21.0959 23.8473 20.22C24.0679 19.3442 24.0471 18.4249 23.7872 17.5599C23.5273 16.6949 23.038 15.9165 22.3711 15.3073C21.7043 14.6981 20.8849 14.2809 20 14.1V10H22ZM2.00001 5C2.00001 4.40666 2.17596 3.82664 2.5056 3.33329C2.83525 2.83994 3.30378 2.45542 3.85196 2.22836C4.40014 2.0013 5.00334 1.94189 5.58528 2.05764C6.16723 2.1734 6.70177 2.45912 7.12133 2.87868C7.54089 3.29824 7.82661 3.83279 7.94237 4.41473C8.05812 4.99667 7.99871 5.59987 7.77165 6.14805C7.54459 6.69623 7.16007 7.16476 6.66672 7.49441C6.17337 7.82405 5.59336 8 5.00001 8C4.20436 8 3.4413 7.68393 2.87869 7.12132C2.31608 6.55871 2.00001 5.79565 2.00001 5ZM8.00001 22H2.00001V16H8.00001V22ZM22 19C22 19.5933 21.8241 20.1734 21.4944 20.6667C21.1648 21.1601 20.6962 21.5446 20.1481 21.7716C19.5999 21.9987 18.9967 22.0581 18.4147 21.9424C17.8328 21.8266 17.2982 21.5409 16.8787 21.1213C16.4591 20.7018 16.1734 20.1672 16.0577 19.5853C15.9419 19.0033 16.0013 18.4001 16.2284 17.8519C16.4554 17.3038 16.84 16.8352 17.3333 16.5056C17.8266 16.1759 18.4067 16 19 16C19.7957 16 20.5587 16.3161 21.1213 16.8787C21.6839 17.4413 22 18.2044 22 19ZM16 2H22V8H16V2Z" fill="black"/>
</svg>
