<svg width="32" height="31" viewBox="0 0 32 31" fill="none" xmlns="http://www.w3.org/2000/svg">
<path d="M22.667 2.66667V29.3333H9.33366V2.66667H22.667ZM22.7577 0H9.24299C7.82699 0 6.66699 1.16 6.66699 2.576V29.424C6.66699 30.84 7.82699 32 9.24299 32H22.7577C24.1737 32 25.3337 30.84 25.3337 29.424V2.576C25.3337 1.16 24.1737 0 22.7577 0Z" fill="#494C4E"/>
<path d="M18.6667 26.6467H13.3333C12.6 26.6467 12 26.0467 12 25.3134V21.3134C12 20.58 12.6 19.98 13.3333 19.98H18.6667C19.4 19.98 20 20.58 20 21.3134V25.3134C20 26.0467 19.4 26.6467 18.6667 26.6467ZM13.3333 13.3334C12.596 13.3334 12 12.736 12 12V6.66671C12 5.93071 12.596 5.33337 13.3333 5.33337C14.0707 5.33337 14.6667 5.93071 14.6667 6.66671V12C14.6667 12.736 14.0707 13.3334 13.3333 13.3334ZM18.6667 13.3334C17.9293 13.3334 17.3333 12.736 17.3333 12V6.66671C17.3333 5.93071 17.9293 5.33337 18.6667 5.33337C19.404 5.33337 20 5.93071 20 6.66671V12C20 12.736 19.404 13.3334 18.6667 13.3334Z" fill="#494C4E"/>
<path d="M11.3337 17.3333C11.7018 17.3333 12.0003 17.0349 12.0003 16.6667C12.0003 16.2985 11.7018 16 11.3337 16C10.9655 16 10.667 16.2985 10.667 16.6667C10.667 17.0349 10.9655 17.3333 11.3337 17.3333Z" fill="#494C4E"/>
</svg>
