<svg width="25" height="24" viewBox="0 0 25 24" fill="none" xmlns="http://www.w3.org/2000/svg">
<g clip-path="url(#clip0_209_6869)">
<path d="M23.7109 20.7516L19.0375 16.0781C18.8266 15.8672 18.5406 15.75 18.2406 15.75H17.4766C18.7703 14.0953 19.5391 12.0141 19.5391 9.75C19.5391 4.36406 15.175 0 9.78906 0C4.40312 0 0.0390625 4.36406 0.0390625 9.75C0.0390625 15.1359 4.40312 19.5 9.78906 19.5C12.0531 19.5 14.1344 18.7313 15.7891 17.4375V18.2016C15.7891 18.5016 15.9062 18.7875 16.1172 18.9984L20.7906 23.6719C21.2312 24.1125 21.9437 24.1125 22.3797 23.6719L23.7062 22.3453C24.1469 21.9047 24.1469 21.1922 23.7109 20.7516ZM9.78906 15.75C6.475 15.75 3.78906 13.0688 3.78906 9.75C3.78906 6.43594 6.47031 3.75 9.78906 3.75C13.1031 3.75 15.7891 6.43125 15.7891 9.75C15.7891 13.0641 13.1078 15.75 9.78906 15.75Z" fill="black"/>
</g>
<defs>
<clipPath id="clip0_209_6869">
<rect width="24" height="24" fill="white" transform="translate(0.0390625)"/>
</clipPath>
</defs>
</svg>
