<svg width="37" height="36" viewBox="0 0 37 36" fill="none" xmlns="http://www.w3.org/2000/svg">
<path d="M18.0391 34.5L3.78906 26.25V9.75L18.0391 1.5L32.2891 9.75V26.25L18.0391 34.5ZM18.0391 4.968L6.78906 11.4795V24.5205L18.0391 31.0335L29.2891 24.5205V11.4795L18.0391 4.9665V4.968ZM18.0391 24C16.6509 24.0003 15.3056 23.5193 14.2324 22.6388C13.1591 21.7584 12.4244 20.5331 12.1533 19.1717C11.8822 17.8103 12.0916 16.397 12.7457 15.1726C13.3999 13.9483 14.4583 12.9886 15.7407 12.4571C17.0231 11.9257 18.45 11.8553 19.7785 12.2581C21.1069 12.6608 22.2546 13.5117 23.026 14.6657C23.7975 15.8198 24.1448 17.2057 24.009 18.5872C23.8731 19.9686 23.2625 21.2603 22.2811 22.242C21.1536 23.3636 19.6294 23.9952 18.0391 24ZM18.0391 15C17.6451 14.9999 17.255 15.0774 16.891 15.2281C16.5269 15.3787 16.1962 15.5996 15.9175 15.8781C15.6389 16.1567 15.4178 16.4873 15.267 16.8513C15.1161 17.2152 15.0384 17.6053 15.0383 17.9992C15.0382 18.3932 15.1157 18.7833 15.2664 19.1474C15.4171 19.5114 15.638 19.8421 15.9165 20.1208C16.195 20.3994 16.5256 20.6205 16.8896 20.7713C17.2535 20.9222 17.6436 20.9999 18.0376 21C18.8332 21.0002 19.5964 20.6843 20.1591 20.1218C20.7219 19.5594 21.0381 18.7964 21.0383 18.0007C21.0385 17.2051 20.7226 16.442 20.1602 15.8792C19.5977 15.3165 18.8347 15.0002 18.0391 15Z" fill="black"/>
</svg>
