<svg width="32" height="32" viewBox="0 0 32 32" fill="none" xmlns="http://www.w3.org/2000/svg">
<g clip-path="url(#clip0_209_6903)">
<path d="M26.6663 10.6666H5.33301V7.99996H26.6663V10.6666ZM23.9997 2.66663H7.99967V5.33329H23.9997V2.66663Z" fill="black"/>
<path d="M13.7496 28.1334L9.34961 23.7334L11.2163 21.8667L13.7496 24.4L20.8163 17.3334L22.6829 19.2L13.7496 28.1334Z" fill="black"/>
<path d="M29.3333 13.3334H2.66667C1.95942 13.3334 1.28115 13.6143 0.781049 14.1144C0.280952 14.6145 0 15.2928 0 16L0 29.3334C0 30.0406 0.280952 30.7189 0.781049 31.219C1.28115 31.7191 1.95942 32 2.66667 32H29.3333C30.0406 32 30.7189 31.7191 31.219 31.219C31.719 30.7189 32 30.0406 32 29.3334V16C32 15.2928 31.719 14.6145 31.219 14.1144C30.7189 13.6143 30.0406 13.3334 29.3333 13.3334ZM29.3333 29.3334H2.66667V16H29.3333V29.3334Z" fill="black"/>
</g>
<defs>
<clipPath id="clip0_209_6903">
<rect width="32" height="32" fill="white"/>
</clipPath>
</defs>
</svg>
