<svg width="32" height="32" viewBox="0 0 32 32" fill="none" xmlns="http://www.w3.org/2000/svg">
<path d="M10.1746 27.0257C8.65819 26.6343 7.46744 25.7614 6.58792 24.651C5.36687 23.1094 4.75 21.1098 4.75 19.3333C4.75 16.661 6.08666 13.774 8.93033 10.9303C11.3574 8.50329 11.8167 6.16917 11.8167 4.53335V4.47128L11.8065 4.41005C11.7998 4.37018 11.8065 4.34565 11.8164 4.32558C11.8288 4.30042 11.8533 4.27059 11.8908 4.24636C11.9237 4.22507 11.9527 4.21697 11.9696 4.21471L11.9894 4.22956L12.0323 4.2537C13.0718 4.83841 14.3208 5.64102 15.4154 6.62455C16.5139 7.61166 17.4093 8.73854 17.8196 9.96388C18.4267 11.9124 18.312 13.9964 17.4398 16.1145L16.8159 17.6297L18.3705 17.1115C20.1522 16.5176 21.2697 15.4568 21.9267 14.2395C22.5501 13.0843 22.7372 11.8304 22.7494 10.7788C22.7559 10.7672 22.7652 10.7541 22.7781 10.7402C22.7994 10.7174 22.8235 10.7002 22.8454 10.6889L22.8478 10.693L22.8769 10.73C24.2716 12.5051 25.9167 15.5465 25.9167 19.4667C25.9167 22.7637 24.8774 24.6809 23.6768 25.7802C22.4554 26.8986 20.9805 27.25 20 27.25C17.6602 27.25 12.4199 25.348 11.4099 17.8992L11.1852 16.2426L10.0972 17.5119L10.6667 18C10.0972 17.5119 10.0969 17.5123 10.0966 17.5127L10.0959 17.5135L10.0942 17.5155L10.0896 17.5209L10.0764 17.5368C10.0658 17.5497 10.0516 17.5672 10.0342 17.5892C9.99959 17.6331 9.95227 17.695 9.89569 17.7739C9.78265 17.9316 9.63179 18.1583 9.47062 18.4461C9.14929 19.0199 8.78042 19.8484 8.59543 20.8659C8.28477 22.5745 8.50911 24.7347 10.1746 27.0257Z" stroke="black" stroke-width="1.5"/>
</svg>
